<svg xmlns="http://www.w3.org/2000/svg" xmlns:xlink="http://www.w3.org/1999/xlink" width="500" zoomAndPan="magnify" viewBox="0 0 375 374.999991" height="500" preserveAspectRatio="xMidYMid meet" version="1.0"><defs><filter x="0%" y="0%" width="100%" height="100%" id="e77bbe404c"><feColorMatrix values="0 0 0 0 1 0 0 0 0 1 0 0 0 0 1 0 0 0 1 0" color-interpolation-filters="sRGB"/></filter><clipPath id="bba8a0dc61"><path d="M 2 62.242188 L 177 62.242188 L 177 292 L 2 292 Z M 2 62.242188 " clip-rule="nonzero"/></clipPath><mask id="659db22843"><g filter="url(#e77bbe404c)"><rect x="-37.5" width="450" fill="#000000" y="-37.499999" height="449.999989" fill-opacity="0.24"/></g></mask><clipPath id="152373bf87"><path d="M 0.320312 0.441406 L 54.800781 0.441406 L 54.800781 39 L 0.320312 39 Z M 0.320312 0.441406 " clip-rule="nonzero"/></clipPath><clipPath id="9597d735e5"><rect x="0" width="55" y="0" height="41"/></clipPath><clipPath id="c94f5db643"><path d="M 95 91 L 271.570312 91 L 271.570312 267.226562 L 95 267.226562 Z M 95 91 " clip-rule="nonzero"/></clipPath><clipPath id="d2860598f2"><path d="M 134 91 L 271.570312 91 L 271.570312 267.226562 L 134 267.226562 Z M 134 91 " clip-rule="nonzero"/></clipPath><mask id="b9e6cf055e"><g filter="url(#e77bbe404c)"><rect x="-37.5" width="450" fill="#000000" y="-37.499999" height="449.999989" fill-opacity="0.15"/></g></mask><clipPath id="5e3e60c59e"><path d="M 4 0.199219 L 78 0.199219 L 78 35 L 4 35 Z M 4 0.199219 " clip-rule="nonzero"/></clipPath><clipPath id="107857d061"><path d="M 0.640625 26 L 137.441406 26 L 137.441406 176.226562 L 0.640625 176.226562 Z M 0.640625 26 " clip-rule="nonzero"/></clipPath><clipPath id="4089155cd9"><rect x="0" width="138" y="0" height="177"/></clipPath><mask id="415a5913af"><g filter="url(#e77bbe404c)"><rect x="-37.5" width="450" fill="#000000" y="-37.499999" height="449.999989" fill-opacity="0.13"/></g></mask><clipPath id="215cd15720"><path d="M 0.28125 88 L 148 88 L 148 164 L 0.28125 164 Z M 0.28125 88 " clip-rule="nonzero"/></clipPath><clipPath id="01754c7b75"><rect x="0" width="165" y="0" height="165"/></clipPath><mask id="8f39ed2722"><g filter="url(#e77bbe404c)"><rect x="-37.5" width="450" fill="#000000" y="-37.499999" height="449.999989" fill-opacity="0.53"/></g></mask><clipPath id="e38a29d06e"><path d="M 1 0.601562 L 63 0.601562 L 63 79.800781 L 1 79.800781 Z M 1 0.601562 " clip-rule="nonzero"/></clipPath><clipPath id="05402b9981"><rect x="0" width="64" y="0" height="80"/></clipPath><mask id="8fd08fd7eb"><g filter="url(#e77bbe404c)"><rect x="-37.5" width="450" fill="#000000" y="-37.499999" height="449.999989" fill-opacity="0.53"/></g></mask><clipPath id="71efe8294f"><path d="M 0.441406 0.519531 L 70.761719 0.519531 L 70.761719 44.921875 L 0.441406 44.921875 Z M 0.441406 0.519531 " clip-rule="nonzero"/></clipPath><clipPath id="c99590ce28"><rect x="0" width="71" y="0" height="45"/></clipPath><mask id="2749c5a236"><g filter="url(#e77bbe404c)"><rect x="-37.5" width="450" fill="#000000" y="-37.499999" height="449.999989" fill-opacity="0.1"/></g></mask><clipPath id="90f4328db2"><path d="M 0.199219 1 L 81.078125 1 L 81.078125 51.878906 L 0.199219 51.878906 Z M 0.199219 1 " clip-rule="nonzero"/></clipPath><clipPath id="c7934b68b2"><rect x="0" width="82" y="0" height="52"/></clipPath><mask id="5a2512e832"><g filter="url(#e77bbe404c)"><rect x="-37.5" width="450" fill="#000000" y="-37.499999" height="449.999989" fill-opacity="0.1"/></g></mask><clipPath id="d887de3198"><path d="M 0.480469 0.71875 L 116.398438 0.71875 L 116.398438 75.601562 L 0.480469 75.601562 Z M 0.480469 0.71875 " clip-rule="nonzero"/></clipPath><clipPath id="d05e76ece0"><rect x="0" width="117" y="0" height="76"/></clipPath><mask id="56ef3e9104"><g filter="url(#e77bbe404c)"><rect x="-37.5" width="450" fill="#000000" y="-37.499999" height="449.999989" fill-opacity="0.27"/></g></mask><clipPath id="6e62d131df"><rect x="0" width="29" y="0" height="62"/></clipPath><mask id="a17a2698e3"><g filter="url(#e77bbe404c)"><rect x="-37.5" width="450" fill="#000000" y="-37.499999" height="449.999989" fill-opacity="0.28"/></g></mask><clipPath id="15cdb06da4"><path d="M 1 0.0390625 L 55 0.0390625 L 55 76 L 1 76 Z M 1 0.0390625 " clip-rule="nonzero"/></clipPath><clipPath id="8ae8cf8e48"><rect x="0" width="56" y="0" height="77"/></clipPath><mask id="934dec94fe"><g filter="url(#e77bbe404c)"><rect x="-37.5" width="450" fill="#000000" y="-37.499999" height="449.999989" fill-opacity="0.28"/></g></mask><clipPath id="6d1db8e98e"><path d="M 1 0.28125 L 72 0.28125 L 72 58 L 1 58 Z M 1 0.28125 " clip-rule="nonzero"/></clipPath><clipPath id="b94353d698"><rect x="0" width="73" y="0" height="59"/></clipPath></defs><g clip-path="url(#bba8a0dc61)"><path fill="#cf7d35" d="M 6.78125 211.84375 C 10.171875 210.570312 12.71875 209.296875 13.554688 208.027344 L 15.25 205.90625 L 6.78125 208.027344 C 6.78125 207.601562 8.054688 206.753906 9.324219 205.90625 C 12.71875 204.210938 11.019531 204.210938 6.359375 206.332031 C 4.238281 207.179688 3.816406 207.179688 3.816406 206.332031 C 3.816406 205.90625 4.664062 204.636719 5.933594 203.789062 C 6.78125 203.363281 7.207031 202.941406 6.359375 202.941406 C 5.933594 202.941406 5.085938 203.363281 4.664062 203.789062 C 4.238281 204.210938 3.390625 204.210938 2.96875 204.210938 C 2.121094 203.363281 3.390625 201.246094 5.511719 200.398438 C 6.359375 199.972656 6.359375 199.546875 5.933594 199.546875 C 5.511719 199.546875 4.238281 199.972656 3.390625 200.398438 C 2.121094 201.253906 2.121094 201.253906 2.121094 199.558594 C 2.121094 199.136719 2.542969 197.863281 3.390625 197.015625 C 4.238281 196.589844 5.511719 194.046875 6.78125 191.082031 C 16.523438 169.90625 102.511719 65.273438 110.566406 63.164062 C 112.261719 62.316406 116.925781 64.011719 116.078125 65.285156 C 115.652344 65.707031 116.078125 65.707031 116.5 65.285156 C 118.195312 64.4375 119.46875 67.402344 119.46875 70.371094 C 119.042969 71.640625 119.46875 72.492188 119.890625 72.492188 C 120.316406 72.066406 120.316406 71.640625 120.316406 71.21875 C 119.890625 71.21875 120.316406 70.792969 120.742188 70.792969 C 124.132812 70.792969 116.925781 80.535156 89.390625 113.152344 C 58.46875 149.164062 28.390625 186.015625 29.238281 186.4375 L 30.933594 186.4375 C 32.207031 185.589844 53.804688 161.023438 77.957031 132.21875 C 111 93.675781 120.742188 80.957031 120.316406 78.847656 C 119.890625 78 120.316406 77.578125 120.742188 77.578125 C 121.164062 77.578125 121.589844 77.152344 122.011719 75.882812 C 122.011719 75.035156 122.859375 74.1875 123.285156 73.761719 C 124.554688 73.761719 125.402344 75.457031 124.980469 76.730469 C 124.554688 77.152344 124.980469 77.578125 124.980469 77.578125 C 125.828125 77.578125 125.828125 77.578125 124.980469 78.425781 C 124.554688 78.425781 124.554688 78.847656 124.980469 78.847656 C 125.402344 78.847656 126.25 78.425781 126.675781 78 C 127.097656 76.730469 127.523438 77.578125 128.371094 80.542969 C 130.914062 86.902344 128.792969 91.132812 116.933594 106.382812 C 108.46875 116.96875 73.726562 157.632812 52.96875 180.089844 L 49.574219 183.480469 L 52.121094 183.480469 C 54.238281 182.632812 69.066406 181.363281 82.621094 180.515625 C 88.554688 180.089844 89.402344 180.089844 89.824219 178.816406 C 93.640625 168.65625 141.5 70.371094 148.285156 64.871094 C 149.554688 64.023438 151.25 63.597656 152.945312 63.597656 C 156.335938 63.597656 162.6875 66.566406 161.839844 67.835938 C 161.839844 68.261719 161.839844 69.109375 162.261719 69.109375 C 163.109375 69.109375 163.109375 69.957031 162.261719 71.652344 C 161.839844 72.925781 161.839844 73.347656 162.261719 73.347656 C 162.6875 72.925781 163.109375 72.078125 163.109375 71.652344 C 163.109375 71.230469 163.535156 70.382812 164.382812 69.957031 C 165.230469 69.53125 165.230469 69.957031 165.230469 71.230469 C 163.535156 75.46875 155.914062 91.566406 139.390625 125.449219 L 116.523438 171.199219 L 111.859375 181.363281 L 114.402344 180.9375 C 116.945312 180.9375 117.371094 180.089844 128.378906 158.066406 C 146.175781 122.054688 165.238281 81.816406 165.652344 79.273438 C 165.652344 78 166.078125 76.730469 166.078125 76.730469 C 166.078125 75.882812 166.925781 73.761719 167.773438 73.761719 C 169.46875 73.339844 169.46875 73.761719 169.042969 77.578125 C 168.195312 83.925781 164.804688 92.402344 148.285156 125.449219 C 139.816406 141.96875 133.035156 156.371094 133.457031 156.796875 C 133.882812 156.796875 133.457031 157.21875 133.035156 156.796875 C 132.1875 156.371094 131.335938 158.492188 131.761719 159.761719 C 132.1875 160.1875 131.761719 160.1875 131.761719 160.1875 C 130.488281 159.339844 125.828125 169.503906 126.25 170.351562 C 126.675781 170.773438 126.675781 171.199219 126.25 170.773438 C 125.402344 170.351562 120.742188 179.242188 120.742188 181.363281 C 120.742188 181.363281 121.164062 181.785156 122.011719 181.785156 C 123.285156 181.785156 137.261719 154.253906 158.445312 109.773438 C 169.457031 86.054688 171.152344 81.816406 169.882812 80.96875 C 169.035156 80.542969 169.035156 80.542969 169.882812 80.542969 C 170.304688 80.542969 170.304688 79.695312 170.304688 78.425781 C 169.882812 76.730469 169.882812 76.304688 170.730469 78 C 171.152344 79.273438 171.578125 79.273438 172 77.578125 C 172 75.457031 172 75.457031 172.847656 77.152344 L 174.546875 80.542969 C 177.089844 83.085938 176.664062 89.4375 173.699219 97.066406 C 170.730469 105.957031 159.71875 129.261719 144.46875 158.914062 C 137.6875 172.046875 132.1875 183.058594 132.1875 183.480469 C 132.1875 183.480469 133.457031 184.328125 134.730469 184.328125 C 138.121094 185.175781 140.664062 187.296875 140.664062 189.839844 C 141.085938 190.6875 141.085938 191.535156 141.511719 191.535156 C 141.933594 191.535156 141.511719 195.773438 140.664062 196.621094 C 140.238281 197.046875 140.238281 197.894531 140.664062 198.742188 C 141.933594 200.011719 137.695312 201.707031 133.890625 201.285156 C 128.378906 200.4375 122.878906 200.4375 122.457031 201.285156 C 122.03125 202.132812 120.761719 202.132812 131.773438 202.980469 C 141.511719 203.402344 143.207031 204.253906 140.664062 205.949219 C 138.96875 207.21875 138.96875 207.644531 140.238281 208.066406 L 142.359375 208.066406 C 142.78125 207.644531 143.207031 207.644531 143.207031 208.066406 C 143.207031 208.492188 142.359375 208.914062 141.085938 208.914062 C 140.238281 208.914062 139.816406 209.339844 140.238281 210.1875 C 141.511719 211.882812 141.085938 213.578125 139.390625 215.273438 C 137.695312 216.96875 136.847656 216.96875 125.414062 217.394531 L 113.128906 217.816406 L 105.085938 233.492188 C 93.621094 253.789062 83.871094 273.265625 80.914062 282.167969 C 77.945312 290.210938 74.566406 294.453125 73.71875 290.210938 C 73.71875 288.941406 73.71875 286.820312 74.140625 285.125 C 74.566406 281.3125 74.140625 280.886719 72.871094 283.429688 C 72.023438 284.277344 71.175781 284.703125 70.328125 284.703125 C 69.480469 284.703125 69.480469 284.277344 69.902344 281.3125 C 70.328125 278.34375 69.902344 277.070312 69.054688 275.800781 C 67.785156 274.527344 67.785156 274.527344 68.207031 275.800781 C 68.207031 278.34375 66.9375 277.917969 63.542969 274.953125 C 61.847656 273.257812 60.152344 272.410156 60.152344 272.410156 C 60.152344 272.832031 59.304688 271.984375 58.882812 270.714844 C 57.1875 265.203125 63.121094 242.757812 72.859375 218.613281 C 73.707031 217.34375 72.859375 217.34375 53.792969 217.765625 C 35.578125 218.191406 19.480469 219.460938 9.738281 221.582031 C 5.5 222.429688 2.121094 222.003906 2.121094 220.734375 C 2.121094 220.308594 2.542969 219.886719 3.390625 219.886719 C 4.238281 219.886719 4.238281 219.460938 3.816406 219.039062 C 2.121094 218.191406 4.238281 216.917969 7.628906 216.496094 C 9.324219 216.070312 10.597656 215.222656 10.597656 214.800781 C 10.597656 214.800781 11.019531 214.375 11.871094 214.375 C 12.71875 214.375 13.988281 213.953125 14.414062 213.101562 C 15.683594 211.832031 15.683594 211.832031 9.324219 213.101562 C 2.121094 214.808594 0 213.960938 6.78125 211.84375 Z M 23.304688 188.125 C 23.304688 188.125 31.773438 177.960938 41.945312 165.667969 L 61.859375 141.101562 C 62.707031 140.253906 63.128906 139.40625 63.128906 139.40625 C 62.28125 139.40625 47.03125 157.625 34.75 173.296875 L 23.738281 186.851562 C 23.304688 187.699219 22.878906 188.125 23.304688 188.125 Z M 24.988281 213.113281 C 26.261719 213.113281 29.652344 212.691406 33.035156 212.265625 C 36 211.84375 44.894531 210.992188 52.945312 210.570312 C 60.144531 210.144531 69.046875 209.296875 72.011719 208.875 L 77.523438 208.449219 L 71.164062 208.027344 C 61.425781 208.027344 25.835938 211.417969 23.71875 212.691406 C 22.878906 213.113281 23.304688 213.539062 24.988281 213.113281 Z M 41.9375 152.546875 C 51.261719 141.101562 56.761719 133.058594 54.640625 135.601562 C 51.675781 138.566406 35.152344 159.742188 24.988281 173.296875 C 24.566406 173.722656 24.566406 174.144531 24.566406 174.144531 C 24.988281 174.144531 32.621094 164.40625 41.9375 152.546875 Z M 28.804688 210.582031 C 31.347656 210.582031 33.46875 210.15625 33.46875 210.15625 C 34.316406 209.308594 27.957031 210.15625 26.273438 210.582031 C 24.566406 211.003906 25.835938 211.003906 28.804688 210.582031 Z M 30.925781 205.917969 C 31.773438 205.917969 36.859375 205.492188 42.359375 204.644531 C 47.445312 203.796875 58.035156 202.949219 66.078125 202.527344 C 78.359375 201.679688 80.054688 201.253906 80.054688 199.984375 C 80.480469 198.710938 80.054688 198.710938 70.742188 199.136719 C 54.21875 199.984375 34.304688 202.101562 32.195312 202.949219 C 30.078125 204.222656 29.230469 205.917969 30.925781 205.917969 Z M 37.707031 209.734375 C 39.828125 209.734375 40.25 209.308594 39.402344 209.308594 C 38.554688 208.882812 36.859375 208.882812 36.011719 209.308594 C 35.164062 209.308594 35.585938 209.734375 37.707031 209.734375 Z M 38.128906 184.734375 C 39.402344 184.734375 43.640625 180.492188 49.566406 173.296875 C 55.078125 167.363281 66.511719 153.808594 75.402344 143.222656 C 83.871094 133.058594 91.5 125.003906 91.5 125.003906 C 91.925781 125.425781 93.195312 124.578125 94.042969 123.308594 L 96.164062 121.1875 L 94.042969 122.882812 C 92.773438 123.730469 92.347656 124.578125 91.925781 124.578125 C 91.5 124.578125 94.46875 120.339844 101.664062 111.871094 C 112.675781 98.316406 121.578125 86.882812 123.6875 83.492188 C 124.960938 81.796875 124.960938 81.371094 124.113281 81.371094 C 123.6875 81.371094 121.992188 83.066406 120.71875 85.1875 C 117.753906 90.273438 111.40625 98.316406 97.425781 114.414062 C 91.066406 121.613281 75.816406 139.40625 63.535156 154.230469 L 38.554688 183.035156 C 36.433594 185.15625 36.433594 185.15625 38.128906 184.734375 Z M 61 136.449219 C 61 137.296875 61.425781 136.871094 62.273438 135.601562 C 63.542969 134.328125 63.542969 134.328125 62.273438 135.175781 Z M 64.816406 132.210938 C 65.238281 132.210938 66.085938 131.785156 66.9375 130.9375 C 67.359375 129.667969 67.785156 129.242188 67.785156 129.242188 C 67.359375 129.242188 66.9375 129.667969 66.085938 130.9375 Z M 67.785156 128.394531 C 68.207031 128.394531 69.054688 127.546875 70.328125 126.699219 C 71.175781 125.425781 71.597656 124.578125 71.597656 124.578125 C 71.175781 124.578125 70.328125 125.425781 69.480469 126.699219 C 68.207031 127.546875 67.785156 128.394531 67.785156 128.394531 Z M 71.164062 131.785156 C 72.011719 130.515625 72.011719 130.515625 70.742188 131.363281 C 69.894531 131.785156 69.46875 132.632812 69.46875 132.632812 C 69.46875 133.480469 69.894531 133.058594 71.164062 131.785156 Z M 70.316406 119.925781 C 70.316406 119.925781 71.164062 119.078125 72.4375 118.230469 C 73.707031 116.960938 74.132812 116.113281 73.707031 116.113281 L 71.589844 118.230469 C 70.742188 119.078125 69.894531 119.925781 70.316406 119.925781 Z M 72.4375 122.882812 C 72.859375 122.882812 73.707031 122.460938 74.554688 121.613281 C 75.402344 120.765625 75.828125 119.917969 75.402344 119.917969 Z M 75.402344 127.121094 C 75.828125 125.851562 76.25 125.425781 76.25 125.425781 C 75.828125 125.425781 75.402344 125.851562 74.554688 127.121094 C 73.707031 127.546875 73.285156 128.394531 73.285156 128.394531 C 73.707031 128.394531 74.554688 127.546875 75.402344 127.121094 Z M 74.554688 115.265625 C 74.980469 114.839844 80.066406 109.328125 85.144531 102.980469 C 90.652344 96.199219 94.882812 91.121094 94.457031 91.546875 C 93.609375 91.96875 88.949219 97.480469 83.449219 103.828125 C 77.945312 110.175781 74.132812 115.265625 74.554688 115.265625 Z M 76.675781 261.832031 C 77.097656 260.558594 79.21875 255.050781 81.761719 249.972656 L 91.5 229.210938 C 94.894531 223.277344 97.4375 218.199219 97.4375 217.777344 C 97.4375 217.777344 96.589844 217.351562 95.742188 217.351562 C 93.621094 217.351562 80.488281 248.699219 77.945312 255.050781 C 75.828125 262.253906 74.980469 265.648438 76.675781 261.832031 Z M 77.945312 116.960938 C 78.792969 115.6875 78.792969 115.6875 77.945312 116.535156 C 77.097656 117.382812 76.25 117.808594 76.25 118.230469 C 76.25 118.65625 77.097656 118.230469 77.945312 116.960938 Z M 76.25 124.15625 C 76.25 125.003906 77.097656 124.578125 79.21875 122.035156 L 81.339844 119.492188 Z M 79.640625 267.34375 C 80.914062 263.949219 87.261719 251.667969 93.195312 239.808594 C 99.132812 227.949219 104.207031 218.199219 104.207031 217.777344 C 104.207031 217.777344 103.785156 217.351562 102.9375 217.351562 C 101.664062 217.351562 99.121094 221.589844 90.230469 240.648438 C 83.023438 255.898438 77.097656 270.722656 77.097656 272.84375 C 77.097656 272.84375 78.371094 270.722656 79.640625 267.34375 Z M 80.914062 119.078125 C 81.339844 119.078125 82.1875 118.230469 83.457031 117.382812 C 84.304688 116.113281 84.730469 115.265625 84.730469 115.265625 C 84.730469 115.265625 83.457031 116.113281 82.609375 117.382812 C 81.339844 118.230469 80.914062 119.078125 80.914062 119.078125 Z M 85.144531 114.414062 C 85.144531 114.414062 86.414062 113.566406 87.6875 111.871094 L 89.804688 109.753906 L 87.261719 111.871094 C 85.144531 113.992188 84.71875 114.414062 85.144531 114.414062 Z M 87.261719 225.832031 C 88.109375 224.558594 88.535156 222.863281 88.535156 222.4375 C 88.535156 222.015625 88.109375 222.863281 87.261719 224.558594 C 86.414062 225.832031 85.566406 227.527344 85.566406 227.949219 C 85.566406 228.363281 86.414062 227.515625 87.261719 225.832031 Z M 88.957031 220.742188 C 88.957031 221.589844 89.382812 221.589844 90.230469 219.046875 C 91.078125 216.929688 91.078125 216.929688 89.804688 218.625 C 89.382812 219.472656 88.957031 220.320312 88.957031 220.742188 Z M 89.382812 109.328125 C 89.804688 109.328125 90.652344 108.058594 91.925781 107.210938 C 92.773438 105.9375 93.621094 105.089844 93.195312 105.089844 C 93.195312 105.089844 91.925781 105.9375 91.078125 107.210938 C 89.804688 108.066406 89.382812 109.328125 89.382812 109.328125 Z M 94.042969 103.828125 C 94.46875 103.828125 95.316406 102.980469 96.164062 102.132812 C 97.011719 101.285156 97.4375 100.4375 97.011719 100.4375 L 95.316406 102.132812 C 94.46875 102.980469 94.042969 103.828125 94.042969 103.828125 Z M 94.894531 90.699219 C 95.316406 90.699219 96.164062 89.425781 97.4375 88.578125 C 98.285156 87.304688 98.707031 86.882812 98.707031 86.882812 C 98.285156 86.882812 97.4375 87.304688 96.589844 88.578125 C 95.316406 89.425781 94.894531 90.699219 94.894531 90.699219 Z M 96.164062 120.351562 L 106.328125 108.914062 C 115.644531 97.902344 123.273438 87.304688 122.425781 87.304688 L 119.035156 91.546875 C 117.761719 93.664062 111.828125 101.285156 105.902344 108.066406 Z M 97.4375 180.078125 C 97.859375 180.078125 102.945312 169.917969 108.449219 158.046875 C 114.382812 145.765625 118.609375 136.023438 118.609375 135.601562 C 116.066406 140.261719 96.578125 178.808594 96.578125 179.65625 C 96.164062 180.078125 96.589844 180.503906 97.4375 180.078125 Z M 99.96875 208.882812 C 100.816406 208.882812 101.242188 208.882812 100.816406 208.460938 C 100.394531 208.035156 99.96875 208.035156 99.546875 208.460938 C 98.699219 208.460938 99.121094 208.882812 99.96875 208.882812 Z M 102.511719 200.40625 C 102.511719 200.832031 103.359375 201.253906 104.632812 201.253906 C 105.480469 201.253906 106.75 200.832031 106.75 200.40625 C 106.75 199.984375 105.902344 199.558594 105.480469 199.558594 L 103.785156 199.558594 C 103.359375 199.558594 102.9375 199.984375 102.511719 200.40625 Z M 107.597656 208.882812 C 108.449219 208.882812 108.871094 208.882812 108.871094 208.460938 C 108.449219 208.035156 107.597656 208.035156 107.175781 208.460938 C 106.75 208.460938 106.75 208.882812 107.597656 208.882812 Z M 107.175781 180.925781 C 107.175781 182.625 109.296875 178.808594 115.644531 165.675781 L 123.6875 149.15625 C 124.113281 148.308594 124.113281 147.882812 124.113281 147.882812 C 123.699219 147.882812 107.175781 180.078125 107.175781 180.925781 Z M 111.414062 201.253906 C 112.261719 202.101562 113.957031 200.832031 113.535156 199.984375 C 113.109375 199.558594 112.261719 199.558594 111.414062 199.984375 C 110.144531 200.40625 110.144531 200.832031 111.414062 201.253906 Z M 118.1875 208.882812 C 118.1875 209.308594 121.578125 209.734375 126.230469 209.734375 C 130.46875 209.734375 133.851562 209.308594 133.425781 209.308594 C 131.316406 208.460938 118.1875 208.460938 118.1875 208.882812 Z M 123.699219 140.675781 C 123.699219 141.101562 124.96875 138.132812 127.089844 134.742188 C 128.785156 130.929688 130.480469 127.546875 130.480469 127.546875 C 130.480469 127.121094 128.785156 129.667969 127.089844 133.058594 C 124.96875 136.449219 123.699219 140.253906 123.699219 140.675781 Z M 136.828125 104.675781 C 143.1875 91.96875 148.261719 82.21875 147.839844 82.21875 C 147.414062 82.21875 124.96875 126.699219 124.96875 127.546875 C 124.96875 128.394531 125.816406 127.121094 136.828125 104.675781 Z M 143.601562 111.871094 C 146.992188 104.675781 149.535156 99.164062 149.535156 99.164062 C 149.109375 99.164062 136.828125 123.308594 136.828125 124.15625 C 136.828125 125.425781 137.253906 124.15625 143.601562 111.871094 Z M 150.808594 77.566406 C 151.230469 77.144531 151.65625 76.296875 151.230469 76.296875 C 151.230469 75.871094 150.382812 76.296875 150.382812 77.144531 C 149.960938 78.414062 149.960938 78.414062 150.808594 77.566406 Z M 156.308594 117.382812 C 156.308594 118.230469 166.894531 96.199219 166.894531 95.773438 C 166.894531 95.351562 164.351562 100.011719 161.382812 105.9375 C 158.425781 111.871094 156.308594 117.382812 156.308594 117.382812 Z M 156.730469 83.914062 C 156.730469 84.339844 157.578125 83.066406 158.851562 81.371094 C 159.699219 79.253906 160.546875 77.558594 160.546875 77.132812 C 160.546875 76.710938 159.699219 77.980469 158.851562 79.675781 C 157.578125 81.796875 156.730469 83.492188 156.730469 83.914062 Z M 167.753906 93.65625 C 168.175781 92.808594 168.601562 91.960938 168.601562 91.535156 C 168.601562 91.535156 168.175781 91.535156 167.753906 91.960938 C 167.328125 92.808594 166.90625 93.65625 166.90625 94.078125 C 166.90625 94.503906 167.328125 94.078125 167.753906 93.65625 Z M 167.753906 93.65625 " fill-opacity="1" fill-rule="nonzero"/></g><path fill="#ffdfc0" d="M 264.601562 148.910156 C 264.601562 150.398438 263.992188 151.949219 262.933594 153.492188 C 262.863281 153.585938 262.796875 153.6875 262.722656 153.785156 C 261.496094 155.402344 260.0625 156.808594 258.421875 158.007812 C 252.089844 162.796875 241.753906 166.515625 231.511719 166.078125 C 221.007812 165.632812 213.484375 160.894531 209.796875 158.503906 C 206.605469 156.441406 195.527344 149.257812 190.859375 135.777344 C 188.867188 130.019531 188.304688 123.84375 188.707031 118.035156 C 189.304688 109.386719 192.039062 101.550781 195.363281 97.089844 C 197.0625 94.816406 198.910156 93.417969 200.710938 93.234375 C 205.554688 92.738281 212.535156 100.773438 211.820312 106.742188 C 211.515625 109.289062 209.867188 111.015625 209.613281 112.894531 C 209.53125 113.472656 209.59375 114.03125 209.796875 114.570312 C 210.300781 115.914062 211.375 116.464844 212.933594 117.171875 C 213.769531 117.550781 214.753906 117.988281 215.859375 118.609375 C 221.859375 121.996094 221.570312 125.484375 226.460938 128.964844 C 229.886719 131.410156 233.21875 131.820312 239.84375 132.75 C 250.753906 134.257812 254.675781 131.753906 258.652344 135.277344 C 260.878906 137.25 262.257812 140.34375 262.859375 141.800781 C 262.925781 141.960938 262.976562 142.101562 263.027344 142.207031 C 263.988281 144.597656 264.617188 147.332031 264.601562 148.910156 Z M 264.601562 148.910156 " fill-opacity="1" fill-rule="nonzero"/><path fill="#f2d3bd" d="M 205.390625 104.007812 C 206.042969 104.253906 206.378906 104.824219 206.78125 105.546875 C 208.445312 108.464844 206.550781 110.4375 207.539062 113.699219 C 208.226562 115.949219 209.867188 117.367188 211.792969 119.046875 C 213.464844 120.5 214.289062 120.714844 216.058594 121.902344 C 220.09375 124.585938 220.542969 126.617188 223.527344 129.195312 C 226.769531 131.996094 230.148438 132.980469 232.902344 133.785156 C 239.632812 135.746094 242.4375 133.96875 251.367188 136.230469 C 256.167969 137.453125 256.382812 138.230469 256.382812 138.503906 C 256.382812 139.949219 250.042969 140.984375 249 141.15625 C 238.277344 142.90625 236 139.117188 227.800781 141.15625 C 224.007812 142.089844 221.773438 143.566406 219.273438 142.289062 C 217.332031 141.300781 216.785156 139.433594 215.679688 136.988281 C 212.8125 130.800781 208.835938 125.433594 203.746094 120.890625 C 199.160156 116.914062 196.847656 117.152344 196.339844 114.570312 C 195.382812 109.714844 202.421875 102.90625 205.390625 104.007812 Z M 205.390625 104.007812 " fill-opacity="1" fill-rule="nonzero"/><g mask="url(#659db22843)"><g transform="matrix(1, 0, 0, 1, 202, 103)"><g clip-path="url(#9597d735e5)"><path fill="#21120a" d="M 22.203125 38.148438 C 20.425781 38.582031 18.996094 39.136719 17.71875 39.476562 C 20.046875 40.386719 22.234375 39.027344 25.808594 38.148438 C 26.792969 37.90625 27.789062 37.738281 28.800781 37.636719 C 26.570312 37.417969 24.371094 37.585938 22.203125 38.148438 Z M 22.203125 38.148438 " fill-opacity="1" fill-rule="nonzero"/><g clip-path="url(#152373bf87)"><path fill="#21120a" d="M 49.378906 33.222656 C 40.449219 30.945312 37.644531 32.71875 30.917969 30.777344 C 28.148438 29.960938 24.769531 28.984375 21.539062 26.183594 C 18.554688 23.605469 18.105469 21.574219 14.070312 18.894531 C 12.300781 17.714844 11.476562 17.5 9.804688 16.039062 C 7.878906 14.367188 6.238281 12.941406 5.550781 10.691406 C 4.5625 7.453125 6.457031 5.46875 4.792969 2.535156 C 4.386719 1.828125 4.054688 1.246094 3.402344 1 C 2.644531 0.722656 1.625 0.953125 0.550781 1.539062 C 1.242188 1.65625 1.871094 1.929688 2.433594 2.351562 C 4.007812 3.578125 4.1875 5.613281 4.234375 6.140625 C 4.554688 10.035156 1.238281 11.949219 2.226562 13.621094 C 2.734375 14.492188 3.695312 14.128906 6.191406 16.035156 C 6.710938 16.445312 6.777344 16.53125 7.414062 16.988281 C 8.386719 17.699219 9.40625 18.332031 10.476562 18.882812 C 12.398438 19.851562 13.128906 19.8125 13.984375 20.253906 C 17.871094 22.253906 16.152344 30.09375 18.90625 30.949219 C 20.335938 31.394531 21.28125 29.425781 24.113281 29.625 C 25.277344 29.738281 26.351562 30.117188 27.332031 30.761719 C 32.476562 33.652344 37.300781 30.375 45.796875 33.210938 C 46.363281 33.402344 50.65625 34.839844 50.511719 36.027344 C 50.378906 37.085938 46.757812 37.632812 43.429688 38.136719 C 41.871094 38.371094 40.574219 38.488281 39.730469 38.542969 C 42.179688 38.6875 44.613281 38.550781 47.027344 38.136719 C 48.074219 37.964844 54.40625 36.910156 54.414062 35.484375 C 54.398438 35.222656 54.179688 34.449219 49.378906 33.222656 Z M 49.378906 33.222656 " fill-opacity="1" fill-rule="nonzero"/></g></g></g></g><path fill="#ffdfc0" d="M 261.015625 141.261719 C 260.511719 142.355469 259.867188 143.363281 259.082031 144.28125 L 258.988281 144.386719 C 258.710938 144.695312 258.421875 144.992188 258.113281 145.277344 C 257.777344 145.597656 257.425781 145.898438 257.058594 146.179688 C 255.957031 147.023438 254.78125 147.746094 253.527344 148.34375 C 244.769531 152.558594 230.75 152.421875 220.5 145.148438 C 220.257812 144.96875 220.007812 144.792969 219.769531 144.605469 C 222.875 144.753906 225.449219 142.367188 231.414062 143.226562 C 237.441406 144.101562 237.9375 146.996094 242.398438 146.640625 C 246.351562 146.320312 247.808594 143.894531 250.394531 142.113281 C 250.582031 141.984375 250.777344 141.859375 250.972656 141.742188 C 251.84375 141.210938 252.773438 140.824219 253.761719 140.582031 C 255.140625 140.234375 256.53125 140.171875 257.933594 140.394531 C 258.996094 140.5625 260.023438 140.851562 261.015625 141.261719 Z M 261.015625 141.261719 " fill-opacity="1" fill-rule="nonzero"/><path fill="#f2d3bd" d="M 258.257812 146.777344 C 257.996094 146.941406 257.59375 146.65625 257.058594 146.179688 C 256.519531 145.703125 255.835938 145 255.019531 144.363281 C 253.878906 143.484375 252.625 142.820312 251.253906 142.375 C 250.964844 142.28125 250.675781 142.191406 250.390625 142.113281 C 250.578125 141.984375 250.773438 141.859375 250.96875 141.742188 C 251.839844 141.210938 252.769531 140.824219 253.757812 140.582031 C 255.136719 140.234375 256.527344 140.171875 257.929688 140.394531 C 257.878906 140.554688 257.835938 140.71875 257.796875 140.894531 C 257.492188 142.386719 257.601562 143.847656 258.125 145.277344 C 258.359375 146.078125 258.542969 146.605469 258.257812 146.777344 Z M 258.257812 146.777344 " fill-opacity="1" fill-rule="nonzero"/><g clip-path="url(#c94f5db643)"><path fill="#ffdfc0" d="M 271.328125 178.5 L 271.328125 178.332031 C 271.265625 173.238281 270.773438 168.191406 269.847656 163.183594 C 268.589844 156.421875 266.5625 149.898438 263.765625 143.613281 C 263.535156 143.097656 263.300781 142.582031 263.054688 142.070312 L 262.972656 142.023438 C 262.351562 141.699219 261.707031 141.382812 261.027344 141.105469 C 260.566406 140.917969 260.097656 140.753906 259.621094 140.613281 L 259.527344 140.589844 C 259.070312 140.453125 258.605469 140.347656 258.132812 140.269531 C 258.066406 140.269531 258 140.246094 257.929688 140.234375 C 256.527344 140.015625 255.136719 140.078125 253.757812 140.425781 C 252.761719 140.664062 251.820312 141.046875 250.941406 141.574219 C 250.746094 141.699219 250.535156 141.820312 250.363281 141.949219 C 247.777344 143.730469 246.316406 146.152344 242.367188 146.476562 C 237.917969 146.832031 237.410156 143.941406 231.382812 143.0625 C 225.417969 142.203125 222.839844 144.59375 219.738281 144.441406 C 218.90625 144.398438 218.117188 144.191406 217.371094 143.820312 C 214.625 142.519531 213.015625 139.550781 209.792969 133.597656 C 207.007812 128.457031 207.683594 127.972656 206.007812 126.023438 C 205.207031 125.078125 204.257812 124.324219 203.152344 123.761719 L 203.128906 123.761719 C 202.382812 123.390625 201.601562 123.105469 200.792969 122.90625 L 200.75 122.90625 C 200.5 122.839844 200.253906 122.785156 200.003906 122.730469 L 199.863281 122.703125 C 198.027344 122.335938 196.25 122.207031 194.796875 121.625 L 194.71875 121.589844 C 193.707031 121.203125 192.925781 120.542969 192.378906 119.605469 C 191.777344 118.535156 191.488281 117.382812 191.507812 116.148438 C 191.5 114.726562 191.785156 113.371094 192.367188 112.074219 C 192.800781 111.027344 193.433594 110.121094 194.269531 109.355469 C 195.449219 108.339844 196.152344 108.582031 197.296875 107.839844 C 199.425781 106.464844 199.742188 103.832031 199.777344 101.054688 C 199.777344 100.6875 199.777344 100.308594 199.777344 99.9375 L 199.777344 99.773438 C 199.757812 97.324219 199.699219 94.914062 200.59375 93.25 L 200.621094 93.195312 L 200.695312 93.070312 C 194.941406 91.898438 189.128906 91.3125 183.261719 91.304688 C 179.695312 91.304688 176.140625 91.515625 172.601562 91.941406 C 166.660156 92.65625 160.851562 93.964844 155.175781 95.875 C 149.5 97.78125 144.082031 100.25 138.914062 103.269531 C 136.890625 104.445312 134.914062 105.703125 132.992188 107.039062 C 131.070312 108.371094 129.203125 109.78125 127.390625 111.265625 C 125.578125 112.75 123.832031 114.300781 122.144531 115.925781 C 120.457031 117.546875 118.835938 119.234375 117.285156 120.988281 C 115.734375 122.742188 114.253906 124.550781 112.84375 126.421875 C 111.4375 128.292969 110.105469 130.214844 108.851562 132.191406 C 107.597656 134.167969 106.421875 136.191406 105.328125 138.261719 C 104.238281 140.332031 103.226562 142.445312 102.304688 144.59375 C 101.378906 146.746094 100.542969 148.929688 99.789062 151.144531 C 99.039062 153.363281 98.378906 155.609375 97.808594 157.878906 C 97.238281 160.148438 96.757812 162.4375 96.367188 164.746094 C 95.980469 167.054688 95.683594 169.375 95.480469 171.707031 C 95.273438 174.039062 95.164062 176.375 95.148438 178.714844 C 95.128906 181.058594 95.207031 183.394531 95.375 185.730469 C 95.542969 188.066406 95.804688 190.390625 96.160156 192.703125 C 96.515625 195.019531 96.960938 197.3125 97.5 199.59375 C 98.039062 201.871094 98.664062 204.125 99.382812 206.351562 C 100.101562 208.582031 100.90625 210.777344 101.796875 212.941406 C 102.691406 215.105469 103.667969 217.230469 104.730469 219.316406 C 105.792969 221.402344 106.9375 223.445312 108.160156 225.4375 C 109.386719 227.433594 110.6875 229.375 112.070312 231.265625 C 113.449219 233.160156 114.902344 234.992188 116.429688 236.765625 C 117.953125 238.542969 119.550781 240.253906 121.210938 241.902344 C 122.875 243.546875 124.601562 245.128906 126.390625 246.636719 C 128.179688 248.148438 130.023438 249.585938 131.929688 250.949219 C 133.832031 252.3125 135.785156 253.59375 137.792969 254.800781 C 139.796875 256.007812 141.847656 257.136719 143.945312 258.179688 C 146.039062 259.222656 148.171875 260.179688 150.34375 261.054688 C 152.515625 261.925781 154.722656 262.710938 156.957031 263.410156 C 159.191406 264.105469 161.449219 264.714844 163.734375 265.230469 C 166.015625 265.75 168.316406 266.171875 170.632812 266.507812 C 172.949219 266.839844 175.277344 267.082031 177.613281 267.230469 C 179.015625 267.324219 180.421875 267.378906 181.839844 267.402344 C 182.199219 267.402344 182.558594 267.402344 182.917969 267.402344 L 183.261719 267.402344 C 187.445312 267.410156 191.609375 267.117188 195.75 266.527344 C 199.894531 265.941406 203.972656 265.058594 207.988281 263.886719 C 212.003906 262.714844 215.917969 261.261719 219.726562 259.527344 C 223.535156 257.792969 227.199219 255.796875 230.722656 253.539062 C 231.019531 253.34375 231.316406 253.15625 231.613281 252.957031 C 231.828125 252.816406 232.042969 252.671875 232.253906 252.523438 C 235.109375 250.613281 237.84375 248.546875 240.453125 246.316406 C 243.066406 244.085938 245.539062 241.710938 247.871094 239.195312 C 250.207031 236.675781 252.386719 234.027344 254.410156 231.253906 C 256.433594 228.480469 258.289062 225.597656 259.976562 222.605469 C 261.660156 219.617188 263.167969 216.535156 264.492188 213.367188 C 265.816406 210.199219 266.953125 206.964844 267.902344 203.664062 C 268.847656 200.363281 269.597656 197.019531 270.15625 193.632812 C 270.710938 190.242188 271.066406 186.832031 271.222656 183.402344 C 271.242188 182.996094 271.257812 182.585938 271.269531 182.179688 C 271.269531 181.976562 271.269531 181.773438 271.269531 181.5625 C 271.269531 181.191406 271.269531 180.8125 271.292969 180.4375 C 271.320312 180.0625 271.292969 179.59375 271.292969 179.175781 C 271.328125 178.964844 271.328125 178.734375 271.328125 178.5 Z M 191.820312 198.535156 C 189.097656 199.75 186.242188 200.355469 183.261719 200.347656 C 182.5 200.347656 181.746094 200.304688 180.992188 200.222656 C 180.234375 200.136719 179.488281 200.015625 178.746094 199.851562 C 178.007812 199.683594 177.277344 199.480469 176.558594 199.238281 C 175.839844 198.996094 175.136719 198.714844 174.449219 198.394531 C 173.761719 198.074219 173.089844 197.71875 172.441406 197.328125 C 171.792969 196.933594 171.164062 196.507812 170.5625 196.050781 C 169.957031 195.589844 169.378906 195.097656 168.832031 194.574219 C 168.28125 194.054688 167.757812 193.503906 167.269531 192.925781 C 166.777344 192.34375 166.320312 191.742188 165.894531 191.113281 C 165.46875 190.484375 165.078125 189.835938 164.722656 189.164062 C 164.371094 188.492188 164.050781 187.804688 163.769531 187.101562 C 163.492188 186.394531 163.25 185.679688 163.046875 184.945312 C 162.84375 184.214844 162.679688 183.476562 162.558594 182.726562 C 162.4375 181.976562 162.355469 181.222656 162.3125 180.464844 C 162.273438 179.707031 162.273438 178.949219 162.3125 178.195312 C 162.355469 177.4375 162.4375 176.683594 162.558594 175.933594 C 162.5625 175.921875 162.5625 175.910156 162.558594 175.902344 C 162.753906 174.734375 163.046875 173.589844 163.4375 172.472656 C 163.824219 171.351562 164.304688 170.273438 164.878906 169.238281 C 165.449219 168.199219 166.105469 167.21875 166.839844 166.292969 C 167.578125 165.367188 168.390625 164.507812 169.273438 163.71875 C 170.15625 162.929688 171.097656 162.21875 172.101562 161.589844 C 173.105469 160.960938 174.15625 160.421875 175.25 159.96875 C 176.34375 159.519531 177.46875 159.160156 178.625 158.902344 C 179.777344 158.640625 180.949219 158.476562 182.128906 158.414062 C 182.410156 158.414062 182.699219 158.390625 182.984375 158.386719 L 183.261719 158.386719 C 185.027344 158.386719 186.765625 158.601562 188.480469 159.039062 C 189.089844 159.195312 189.703125 159.378906 190.285156 159.597656 C 190.734375 159.75 191.175781 159.921875 191.601562 160.113281 C 193.050781 160.742188 194.410156 161.523438 195.679688 162.457031 C 196.949219 163.390625 198.101562 164.453125 199.132812 165.648438 C 200.164062 166.839844 201.050781 168.132812 201.792969 169.527344 C 202.53125 170.917969 203.109375 172.375 203.519531 173.898438 C 203.742188 174.742188 203.914062 175.597656 204.039062 176.464844 C 204.472656 179.628906 204.199219 182.734375 203.222656 185.777344 C 202.773438 187.179688 202.183594 188.519531 201.449219 189.800781 C 200.71875 191.078125 199.863281 192.269531 198.878906 193.367188 C 197.898438 194.464844 196.8125 195.453125 195.621094 196.320312 C 194.433594 197.191406 193.167969 197.929688 191.820312 198.535156 Z M 191.820312 198.535156 " fill-opacity="1" fill-rule="nonzero"/></g><g clip-path="url(#d2860598f2)"><g mask="url(#b9e6cf055e)"><g transform="matrix(1, 0, 0, 1, 134, 91)"><g clip-path="url(#4089155cd9)"><path fill="#21120a" d="M 69.363281 38.898438 C 72.589844 44.851562 74.199219 47.824219 76.945312 49.125 C 77.691406 49.492188 78.476562 49.699219 79.308594 49.742188 C 79.378906 49.742188 79.449219 49.742188 79.515625 49.742188 C 78.265625 48.054688 76.980469 45.695312 75.214844 42.429688 C 72.429688 37.292969 73.101562 36.804688 71.433594 34.859375 C 70.707031 34.023438 69.863281 33.328125 68.902344 32.777344 C 67.945312 32.222656 66.921875 31.84375 65.832031 31.632812 C 67.199219 33.328125 66.734375 34.042969 69.363281 38.898438 Z M 69.363281 38.898438 " fill-opacity="1" fill-rule="nonzero"/><path fill="#21120a" d="M 56.425781 68.714844 C 55.792969 68.460938 55.140625 68.238281 54.480469 68.042969 C 52.578125 67.496094 50.640625 67.226562 48.664062 67.226562 L 48.386719 67.226562 L 48.128906 67.417969 C 46.949219 67.480469 45.777344 67.644531 44.625 67.90625 C 43.46875 68.164062 42.34375 68.523438 41.25 68.972656 C 40.15625 69.425781 39.105469 69.964844 38.101562 70.59375 C 37.097656 71.226562 36.15625 71.933594 35.273438 72.722656 C 34.390625 73.511719 33.578125 74.371094 32.839844 75.296875 C 32.105469 76.222656 31.449219 77.203125 30.878906 78.242188 C 30.304688 79.277344 29.824219 80.355469 29.4375 81.476562 C 29.046875 82.59375 28.753906 83.738281 28.558594 84.90625 C 28.5625 84.917969 28.5625 84.925781 28.558594 84.9375 C 28.28125 86.628906 28.214844 88.328125 28.351562 90.035156 C 28.488281 91.742188 28.832031 93.410156 29.375 95.03125 C 29.917969 96.65625 30.652344 98.191406 31.570312 99.636719 C 32.492188 101.082031 33.570312 102.398438 34.808594 103.578125 L 35.054688 104.164062 C 33.949219 103.726562 32.890625 103.195312 31.878906 102.578125 C 30.863281 101.957031 29.910156 101.253906 29.015625 100.472656 C 28.121094 99.691406 27.296875 98.839844 26.546875 97.917969 C 25.796875 96.996094 25.128906 96.019531 24.542969 94.984375 C 23.960938 93.949219 23.46875 92.871094 23.066406 91.753906 C 22.664062 90.632812 22.359375 89.488281 22.152344 88.320312 C 21.945312 87.148438 21.839844 85.96875 21.832031 84.78125 C 21.828125 83.59375 21.921875 82.414062 22.113281 81.238281 C 22.113281 81.238281 22.113281 81.214844 22.113281 81.207031 C 22.304688 80.078125 22.582031 78.96875 22.953125 77.882812 C 23.324219 76.800781 23.78125 75.753906 24.324219 74.742188 C 24.867188 73.730469 25.488281 72.773438 26.1875 71.863281 C 26.886719 70.957031 27.65625 70.113281 28.492188 69.328125 C 29.332031 68.546875 30.226562 67.839844 31.183594 67.203125 C 32.136719 66.570312 33.136719 66.015625 34.179688 65.546875 C 35.226562 65.074219 36.300781 64.691406 37.410156 64.398438 C 38.519531 64.101562 39.640625 63.898438 40.785156 63.789062 L 40.886719 63.789062 C 41.421875 63.738281 41.964844 63.707031 42.515625 63.703125 L 42.792969 63.703125 C 45.253906 63.699219 47.640625 64.121094 49.953125 64.960938 C 52.265625 65.800781 54.363281 67.011719 56.25 68.597656 Z M 56.425781 68.714844 " fill-opacity="1" fill-rule="nonzero"/><g clip-path="url(#5e3e60c59e)"><path fill="#21120a" d="M 77.832031 15.742188 C 77.527344 18.289062 75.878906 20.015625 75.628906 21.894531 C 75.375 23.777344 75.03125 24.148438 74.8125 24.15625 C 74.308594 24.15625 73.472656 21.929688 73.773438 19.707031 C 73.996094 18.035156 74.683594 17.632812 74.585938 16.484375 C 74.445312 15.023438 73.136719 13.9375 71.96875 13.222656 C 71.835938 13.167969 71.664062 13.105469 71.476562 13.042969 C 71.210938 12.96875 70.9375 12.917969 70.660156 12.898438 C 70.292969 12.863281 69.933594 12.886719 69.574219 12.96875 C 68.863281 13.164062 68.246094 13.523438 67.726562 14.042969 C 66.578125 15.015625 65.5 16.054688 64.488281 17.167969 L 64.402344 17.273438 C 61.734375 20.816406 60.402344 22.574219 60.125 23.4375 C 59.28125 25.984375 59.953125 28.644531 60.835938 30.757812 C 61.789062 33.035156 62.988281 34.667969 62.773438 34.796875 C 62.554688 34.925781 61.5625 33.851562 57.414062 27.621094 C 56.496094 27.496094 55.597656 27.296875 54.714844 27.019531 C 53.511719 26.664062 52.585938 25.949219 51.9375 24.871094 C 50.199219 21.929688 51.199219 17.207031 53.570312 14.902344 C 44.238281 19.496094 18.203125 31.242188 16.730469 28.734375 C 15.75 27.070312 26.207031 20.09375 32.4375 14.367188 C 35.398438 11.636719 37.4375 9.179688 36.753906 7.726562 C 35.304688 4.589844 21.867188 7.433594 4.914062 12.445312 C 10.082031 9.425781 15.503906 6.960938 21.175781 5.054688 C 26.851562 3.144531 32.660156 1.835938 38.601562 1.117188 C 48.039062 -0.0195312 57.414062 0.347656 66.734375 2.214844 L 66.734375 2.234375 C 71.566406 1.738281 78.539062 9.773438 77.832031 15.742188 Z M 77.832031 15.742188 " fill-opacity="1" fill-rule="nonzero"/></g><g clip-path="url(#107857d061)"><path fill="#21120a" d="M 137.328125 88.203125 C 137.328125 88.675781 137.328125 89.15625 137.328125 89.628906 C 137.273438 93.175781 137.003906 96.703125 136.523438 100.214844 C 136.039062 103.726562 135.347656 107.195312 134.449219 110.621094 C 133.546875 114.050781 132.441406 117.410156 131.136719 120.707031 C 129.828125 124 128.328125 127.203125 126.632812 130.316406 C 124.941406 133.429688 123.0625 136.429688 121.007812 139.316406 C 118.949219 142.203125 116.726562 144.957031 114.335938 147.574219 C 111.949219 150.191406 109.410156 152.65625 106.722656 154.96875 C 104.035156 157.277344 101.21875 159.417969 98.273438 161.390625 C 98.058594 161.535156 97.84375 161.679688 97.628906 161.820312 C 97.335938 162.015625 97.035156 162.207031 96.738281 162.402344 C 93.214844 164.660156 89.550781 166.652344 85.742188 168.386719 C 81.933594 170.121094 78.019531 171.574219 74.003906 172.746094 C 69.988281 173.917969 65.910156 174.800781 61.765625 175.390625 C 57.625 175.980469 53.460938 176.269531 49.277344 176.261719 L 48.929688 176.261719 C 48.570312 176.261719 48.210938 176.261719 47.851562 176.261719 C 46.433594 176.238281 45.027344 176.183594 43.625 176.089844 C 36.011719 175.609375 28.589844 174.160156 21.359375 171.742188 C 14.125 169.324219 7.324219 166.015625 0.953125 161.820312 C 6.617188 164.949219 12.558594 167.417969 18.769531 169.226562 C 24.980469 171.039062 31.316406 172.144531 37.773438 172.550781 C 39.175781 172.640625 40.582031 172.695312 42.003906 172.71875 C 42.363281 172.71875 42.71875 172.71875 43.074219 172.71875 L 43.425781 172.71875 C 47.609375 172.726562 51.773438 172.4375 55.914062 171.847656 C 60.058594 171.257812 64.136719 170.375 68.152344 169.203125 C 72.171875 168.03125 76.082031 166.578125 79.890625 164.84375 C 83.699219 163.109375 87.367188 161.117188 90.886719 158.855469 C 91.1875 158.660156 91.484375 158.472656 91.777344 158.273438 C 91.992188 158.136719 92.210938 157.988281 92.421875 157.867188 C 95.417969 155.863281 98.277344 153.683594 101.003906 151.328125 C 103.734375 148.972656 106.308594 146.460938 108.726562 143.789062 C 111.144531 141.117188 113.390625 138.308594 115.464844 135.359375 C 117.539062 132.414062 119.421875 129.351562 121.121094 126.171875 C 122.816406 122.992188 124.3125 119.722656 125.609375 116.359375 C 126.902344 112.996094 127.988281 109.566406 128.859375 106.070312 C 129.734375 102.574219 130.390625 99.035156 130.828125 95.460938 C 131.269531 91.882812 131.488281 88.292969 131.484375 84.6875 C 131.476562 79.25 130.980469 73.855469 130 68.503906 C 129.625 66.335938 129.28125 64.34375 128.949219 62.507812 C 128.132812 57.90625 127.347656 54.3125 126.355469 51.5625 C 126.125 50.925781 125.882812 50.332031 125.625 49.785156 C 124.648438 47.707031 123.445312 46.234375 121.824219 45.234375 C 118.351562 43.09375 116.078125 44.582031 99.808594 42.144531 C 97.96875 41.871094 96.097656 41.570312 94.003906 40.378906 C 91.90625 39.1875 90.042969 37.117188 86.433594 33.039062 C 85.027344 31.464844 84.632812 30.941406 83.523438 29.882812 C 80.507812 27.03125 78.878906 26.621094 78.957031 26.171875 C 79.792969 26.550781 80.777344 26.988281 81.886719 27.609375 C 87.882812 30.996094 87.59375 34.484375 92.488281 37.964844 C 95.910156 40.410156 99.242188 40.820312 105.867188 41.75 C 116.777344 43.257812 120.699219 40.753906 124.675781 44.277344 C 126.902344 46.25 128.285156 49.34375 128.882812 50.800781 C 128.949219 50.960938 129 51.101562 129.050781 51.207031 C 129.296875 51.722656 129.53125 52.234375 129.761719 52.753906 C 132.558594 59.035156 134.585938 65.558594 135.84375 72.324219 C 136.773438 77.339844 137.265625 82.398438 137.328125 87.5 C 137.328125 87.734375 137.328125 87.964844 137.328125 88.203125 Z M 137.328125 88.203125 " fill-opacity="1" fill-rule="nonzero"/></g></g></g></g></g><path fill="#f16cbe" d="M 264.863281 167.289062 C 264.835938 166.796875 264.746094 166.316406 264.601562 165.847656 C 264.554688 165.691406 264.507812 165.550781 264.453125 165.40625 C 264.152344 164.605469 263.730469 163.875 263.195312 163.207031 C 263.183594 163.199219 263.175781 163.183594 263.167969 163.171875 C 262.410156 162.210938 261.460938 161.339844 260.417969 160.261719 C 260.269531 160.109375 260.121094 159.960938 259.972656 159.800781 C 259.722656 159.535156 259.46875 159.253906 259.210938 158.960938 C 259.210938 158.960938 259.210938 158.960938 259.183594 158.9375 C 258.9375 158.640625 258.683594 158.339844 258.421875 158.015625 C 257.476562 156.820312 256.644531 155.550781 255.929688 154.203125 C 255.929688 154.203125 255.929688 154.203125 255.929688 154.183594 C 255.804688 153.957031 255.6875 153.726562 255.570312 153.496094 C 255.230469 152.824219 254.941406 152.191406 254.703125 151.617188 C 254.351562 150.800781 254.089844 150.042969 253.890625 149.429688 C 253.753906 149.019531 253.636719 148.660156 253.542969 148.351562 L 253.542969 148.328125 C 252.867188 146.34375 252.164062 144.460938 251.347656 142.675781 C 251.347656 142.667969 251.347656 142.660156 251.347656 142.652344 C 251.308594 142.566406 251.277344 142.484375 251.234375 142.394531 C 251.140625 142.183594 251.046875 141.988281 250.949219 141.761719 L 250.929688 141.761719 C 250.738281 141.882812 250.550781 141.996094 250.371094 142.121094 C 247.785156 143.902344 246.324219 146.328125 242.375 146.648438 C 237.925781 147.007812 237.417969 144.109375 231.390625 143.234375 C 225.425781 142.375 222.847656 144.761719 219.746094 144.613281 C 218.914062 144.566406 218.125 144.363281 217.378906 143.996094 C 214.65625 142.675781 213.023438 139.710938 209.8125 133.757812 C 207.027344 128.621094 207.699219 128.136719 206.023438 126.1875 C 205.222656 125.242188 204.273438 124.492188 203.167969 123.9375 L 203.125 123.9375 C 202.128906 123.453125 201.089844 123.105469 200 122.898438 C 198.121094 122.488281 196.285156 122.386719 194.792969 121.789062 C 193.746094 121.40625 192.941406 120.734375 192.375 119.769531 C 191.746094 118.644531 191.457031 117.4375 191.503906 116.148438 C 191.519531 114.734375 191.824219 113.382812 192.417969 112.097656 C 192.851562 111.105469 193.46875 110.246094 194.269531 109.519531 C 195.449219 108.503906 196.152344 108.746094 197.296875 108.003906 C 199.46875 106.601562 199.742188 103.894531 199.777344 101.074219 C 199.777344 100.707031 199.777344 100.328125 199.777344 99.957031 C 199.402344 99.65625 199.039062 99.382812 198.679688 99.140625 C 197.632812 98.363281 196.527344 97.683594 195.359375 97.101562 C 192.417969 95.652344 189.976562 95.402344 187.984375 95.652344 C 183.144531 96.257812 181.769531 99.730469 173.945312 103.246094 C 170.511719 104.777344 168.328125 105.203125 166.417969 105.390625 C 163.746094 105.648438 161.609375 105.4375 157.359375 107.15625 C 148.453125 110.742188 146.757812 116.085938 140.5625 120.6875 C 138.507812 122.203125 136.289062 123.4375 133.917969 124.386719 C 127.625 126.972656 126.121094 125.609375 122.59375 127.941406 C 122.398438 128.066406 122.1875 128.207031 121.984375 128.347656 C 116.765625 132.148438 114.980469 137.921875 112.328125 149.367188 C 110.449219 157.519531 108.324219 167.679688 106.382812 179.539062 C 101.65625 184.234375 100.226562 190.871094 102.671875 195.957031 C 103.730469 198.085938 105.273438 199.773438 107.296875 201.019531 L 107.445312 201.117188 C 107.636719 201.238281 107.828125 201.351562 108.007812 201.453125 C 108.058594 201.484375 108.113281 201.511719 108.167969 201.539062 C 108.703125 201.832031 109.257812 202.09375 109.828125 202.316406 C 112.085938 212.851562 118.839844 237.765625 136.78125 245.953125 C 144.089844 249.28125 159.945312 252.882812 161.109375 253.15625 C 168.171875 254.75 174.132812 255.683594 178.328125 256.242188 C 178.734375 256.648438 179.199219 257.058594 179.691406 257.464844 C 181.898438 259.34375 184.8125 261.210938 188.226562 261.710938 L 188.671875 261.765625 L 189.128906 261.8125 C 189.296875 261.8125 189.46875 261.835938 189.648438 261.835938 C 189.828125 261.835938 190.03125 261.835938 190.21875 261.835938 C 190.40625 261.835938 190.542969 261.835938 190.695312 261.816406 C 190.851562 261.796875 191.023438 261.796875 191.179688 261.777344 L 191.625 261.71875 C 191.773438 261.695312 191.914062 261.660156 192.054688 261.632812 C 196.070312 260.726562 197.097656 256.996094 206.578125 252.777344 C 206.578125 252.777344 222.25 245.804688 224.683594 244.273438 C 224.949219 244.105469 225.210938 243.9375 225.46875 243.765625 L 226.027344 243.390625 C 229.773438 240.832031 246.652344 233.308594 248.695312 223.203125 C 249.066406 221.363281 248.894531 219.570312 248.1875 217.832031 C 247.992188 217.289062 247.78125 216.765625 247.601562 216.246094 C 247.023438 214.613281 246.652344 212.984375 247.558594 210.710938 C 247.695312 210.355469 247.859375 210.011719 248.046875 209.679688 C 248.15625 209.488281 248.277344 209.300781 248.410156 209.117188 L 248.523438 208.949219 C 249.773438 207.277344 251.484375 206.652344 253.351562 205.425781 C 254.546875 204.648438 255.59375 203.710938 256.492188 202.605469 C 256.546875 202.546875 256.601562 202.480469 256.648438 202.414062 C 257.878906 200.929688 258.609375 199.226562 258.839844 197.308594 C 259.101562 195.273438 258.839844 193.128906 258.773438 190.519531 C 258.773438 190.078125 258.75 189.628906 258.75 189.160156 C 258.742188 185.882812 259.199219 182.675781 260.128906 179.535156 C 260.246094 179.125 260.371094 178.71875 260.496094 178.3125 C 260.953125 176.894531 261.503906 175.511719 262.144531 174.164062 C 262.984375 172.386719 263.777344 171.121094 264.273438 169.984375 C 264.628906 169.257812 264.824219 168.488281 264.863281 167.679688 C 264.875 167.546875 264.875 167.425781 264.863281 167.289062 Z M 183.539062 205.386719 C 180.4375 205.363281 176.769531 204.804688 173.34375 202.941406 C 172.734375 202.601562 172.160156 202.066406 170.980469 201.390625 C 169.515625 200.5625 167.980469 199.902344 166.371094 199.417969 C 164.894531 198.421875 163.652344 197.183594 162.644531 195.707031 C 161.183594 193.542969 160.382812 191.15625 160.238281 188.546875 C 160.1875 188.027344 160.128906 187.476562 160.0625 186.890625 C 160.035156 186.679688 160.011719 186.480469 159.992188 186.289062 C 158.964844 177.605469 157.996094 178.511719 158.195312 175.160156 C 158.265625 173.898438 158.460938 172.660156 158.78125 171.441406 C 160.445312 164.988281 164.953125 160.671875 165.675781 160 C 168.308594 157.5625 171.347656 155.832031 174.789062 154.8125 C 176.496094 154.304688 178.238281 153.964844 180.015625 153.804688 C 180.527344 153.753906 181.035156 153.722656 181.511719 153.699219 C 182.148438 153.675781 182.734375 153.667969 183.296875 153.675781 L 183.609375 153.675781 L 184.335938 153.703125 C 184.449219 153.703125 184.554688 153.703125 184.664062 153.726562 L 185.15625 153.726562 L 185.414062 153.75 L 185.4375 153.75 C 185.925781 153.796875 186.335938 153.847656 186.660156 153.890625 L 186.757812 153.890625 C 193.523438 154.84375 199.804688 158.410156 203.816406 162.371094 C 205.855469 164.375 207.28125 166.476562 207.894531 168.390625 C 207.925781 168.476562 207.953125 168.558594 207.976562 168.640625 C 208.242188 169.464844 208.316406 170.3125 208.199219 171.171875 C 207.972656 172.5625 206.90625 174.839844 207.753906 177.738281 C 207.921875 178.300781 208.144531 178.835938 208.433594 179.34375 C 208.945312 180.230469 209.507812 180.789062 209.839844 181.382812 C 212.421875 186.175781 204.089844 200.953125 190.652344 204.480469 C 188.320312 205.089844 185.949219 205.394531 183.539062 205.386719 Z M 183.539062 205.386719 " fill-opacity="1" fill-rule="nonzero"/><g mask="url(#415a5913af)"><g transform="matrix(1, 0, 0, 1, 101, 98)"><g clip-path="url(#01754c7b75)"><path fill="#21120a" d="M 108.9375 75.867188 C 108.609375 75.25 108.042969 74.691406 107.53125 73.804688 C 107.445312 73.648438 107.359375 73.480469 107.277344 73.308594 C 107.019531 74.703125 106.027344 76.933594 106.871094 79.777344 C 107.03125 80.332031 107.253906 80.863281 107.539062 81.371094 C 107.785156 81.789062 108.058594 82.191406 108.355469 82.574219 C 109.488281 79.804688 109.742188 77.355469 108.9375 75.867188 Z M 108.9375 75.867188 " fill-opacity="1" fill-rule="nonzero"/><path fill="#21120a" d="M 107.074219 63.105469 C 107.050781 63.019531 107.023438 62.933594 106.992188 62.851562 C 106.363281 60.9375 104.921875 58.832031 102.914062 56.832031 C 98.902344 52.867188 92.621094 49.300781 85.855469 48.351562 L 85.757812 48.351562 C 85.445312 48.304688 85.03125 48.253906 84.535156 48.207031 C 84.535156 48.207031 84.535156 48.207031 84.511719 48.207031 L 84.253906 48.183594 L 83.761719 48.183594 C 83.65625 48.183594 83.546875 48.183594 83.433594 48.160156 L 82.707031 48.132812 L 82.328125 48.132812 C 81.257812 48.117188 80.183594 48.160156 79.117188 48.261719 C 77.335938 48.421875 75.59375 48.757812 73.882812 49.269531 C 70.441406 50.292969 67.402344 52.019531 64.769531 54.457031 C 63.917969 55.273438 57.777344 61.128906 57.289062 69.617188 C 57.179688 71.46875 57.425781 72.023438 57.839844 73.609375 C 59.472656 67.085938 64.042969 62.710938 64.773438 62.03125 C 67.40625 59.59375 70.445312 57.863281 73.886719 56.847656 C 75.597656 56.335938 77.34375 55.996094 79.121094 55.835938 C 80.1875 55.730469 81.261719 55.691406 82.332031 55.707031 L 82.710938 55.707031 L 83.4375 55.738281 C 83.550781 55.738281 83.660156 55.738281 83.765625 55.757812 L 84.257812 55.757812 L 84.515625 55.78125 L 84.539062 55.78125 C 85.027344 55.832031 85.441406 55.878906 85.761719 55.925781 L 85.859375 55.925781 C 92.625 56.875 98.90625 60.441406 102.917969 64.40625 C 104.429688 65.839844 105.652344 67.488281 106.589844 69.347656 C 106.695312 67.789062 107.183594 66.53125 107.332031 65.636719 C 107.441406 64.773438 107.355469 63.929688 107.074219 63.105469 Z M 107.074219 63.105469 " fill-opacity="1" fill-rule="nonzero"/><path fill="#21120a" d="M 96.378906 2.433594 C 95.234375 3.171875 94.53125 2.929688 93.351562 3.945312 C 90.792969 6.148438 89.648438 11.117188 91.453125 14.171875 C 91.890625 13.148438 92.523438 12.265625 93.351562 11.519531 C 94.53125 10.503906 95.234375 10.746094 96.378906 10.003906 C 98.824219 8.417969 98.882812 5.15625 98.859375 1.9375 C 98.472656 1.632812 98.089844 1.347656 97.722656 1.078125 C 97.371094 1.628906 96.925781 2.078125 96.378906 2.433594 Z M 96.378906 2.433594 " fill-opacity="1" fill-rule="nonzero"/><path fill="#21120a" d="M 163.519531 67.402344 C 163.4375 67.199219 163.316406 66.898438 163.140625 66.546875 C 162.777344 65.925781 162.382812 65.332031 161.953125 64.757812 C 160.867188 63.316406 159.609375 62.042969 158.191406 60.933594 C 156.457031 59.46875 155.535156 57.515625 153.703125 53.59375 C 150.886719 47.617188 150.3125 43.65625 149.96875 43.726562 C 149.542969 43.8125 151.554688 49.875 152.441406 59.605469 C 152.726562 62.734375 152.796875 65.136719 154.652344 66.863281 C 156.632812 68.707031 159.324219 73.527344 159.203125 73.945312 C 158.273438 77.085938 157.8125 80.296875 157.832031 83.574219 C 157.832031 85.136719 157.921875 86.535156 157.980469 87.832031 C 158.1875 85.691406 158.597656 83.585938 159.203125 81.523438 C 159.324219 81.113281 159.449219 80.707031 159.570312 80.296875 C 160.03125 78.878906 160.582031 77.5 161.222656 76.152344 C 162.0625 74.375 162.855469 73.109375 163.351562 71.972656 C 163.707031 71.246094 163.902344 70.476562 163.941406 69.667969 Z M 163.519531 67.402344 " fill-opacity="1" fill-rule="nonzero"/><path fill="#21120a" d="M 155.726562 96.863281 C 155.675781 96.933594 155.625 96.996094 155.566406 97.058594 C 154.671875 98.164062 153.625 99.105469 152.429688 99.878906 C 150.5625 101.101562 148.851562 101.738281 147.605469 103.402344 L 147.488281 103.574219 C 147.136719 104.070312 146.851562 104.601562 146.636719 105.164062 C 145.730469 107.441406 146.105469 109.074219 146.679688 110.699219 C 146.808594 111.0625 146.949219 111.417969 147.085938 111.785156 C 147.210938 111.566406 147.347656 111.351562 147.496094 111.148438 L 147.613281 110.980469 C 148.859375 109.308594 150.570312 108.679688 152.4375 107.453125 C 153.632812 106.679688 154.679688 105.738281 155.574219 104.636719 C 155.632812 104.574219 155.683594 104.511719 155.734375 104.445312 C 156.964844 102.945312 157.6875 101.234375 157.902344 99.308594 C 158.175781 97.203125 157.902344 94.957031 157.832031 92.207031 C 157.546875 93.949219 156.847656 95.5 155.726562 96.863281 Z M 155.726562 96.863281 " fill-opacity="1" fill-rule="nonzero"/><g clip-path="url(#215cd15720)"><path fill="#21120a" d="M 138.859375 130.703125 C 136.222656 134.886719 134.902344 136.980469 132.542969 138.042969 C 124.878906 141.453125 115.808594 132.710938 112.34375 136.027344 C 110.5625 137.734375 112.613281 140.402344 110.074219 145.113281 C 108.941406 147.21875 107.550781 148.515625 105.78125 150.164062 C 102.492188 153.234375 100.8125 154.804688 98.207031 155.21875 C 97.035156 155.402344 91.621094 155.992188 91.121094 156.101562 C 91.097656 156.101562 90.929688 156.148438 90.710938 156.1875 C 90.566406 156.210938 90.414062 156.226562 90.257812 156.25 L 89.78125 156.289062 L 89.300781 156.289062 C 88.9375 156.296875 88.574219 156.285156 88.207031 156.257812 L 87.753906 156.210938 L 87.308594 156.15625 C 84.402344 155.746094 81.191406 153.730469 81.191406 153.730469 C 79.808594 152.859375 78.542969 151.84375 77.398438 150.675781 L 75.234375 147.371094 C 70.222656 148.007812 65.203125 148.078125 60.175781 147.589844 C 52.511719 146.839844 44.089844 146.066406 35.84375 140.382812 C 33.933594 139.0625 20.066406 129.226562 19.945312 115.558594 C 19.875 108.054688 23.976562 102.988281 21.207031 100.40625 C 18.441406 97.828125 7.34375 96.027344 7.242188 95.972656 L 7.210938 95.972656 L 7.085938 95.902344 C 6.90625 95.800781 6.71875 95.6875 6.523438 95.566406 C 6.472656 95.539062 6.429688 95.503906 6.378906 95.46875 C 4.347656 94.21875 2.804688 92.519531 1.75 90.382812 C 1.503906 89.863281 1.292969 89.328125 1.125 88.777344 C 0.664062 90.296875 0.484375 91.84375 0.589844 93.425781 C 0.699219 95.003906 1.082031 96.515625 1.738281 97.957031 C 2.800781 100.085938 4.339844 101.773438 6.367188 103.019531 L 6.511719 103.117188 C 6.707031 103.238281 6.894531 103.351562 7.074219 103.453125 C 7.125 103.484375 7.175781 103.511719 7.230469 103.539062 C 7.769531 103.832031 8.324219 104.09375 8.894531 104.316406 C 11.152344 114.851562 17.898438 139.765625 35.839844 147.941406 C 43.152344 151.273438 59.007812 154.875 60.167969 155.148438 C 67.230469 156.742188 73.191406 157.675781 77.390625 158.234375 C 77.800781 158.640625 78.261719 159.050781 78.753906 159.457031 C 80.964844 161.335938 83.875 163.203125 87.289062 163.703125 L 87.730469 163.757812 L 88.1875 163.804688 C 88.546875 163.832031 88.914062 163.839844 89.28125 163.835938 C 89.445312 163.835938 89.605469 163.835938 89.761719 163.816406 C 89.917969 163.796875 90.085938 163.796875 90.238281 163.777344 L 90.691406 163.71875 C 90.835938 163.695312 90.980469 163.660156 91.097656 163.632812 C 95.117188 162.726562 96.144531 158.996094 105.621094 154.777344 C 105.621094 154.777344 121.300781 147.804688 123.734375 146.273438 C 123.996094 146.105469 124.253906 145.9375 124.511719 145.765625 C 124.769531 145.59375 125.03125 145.417969 125.070312 145.386719 C 128.816406 142.832031 145.695312 135.308594 147.738281 125.203125 C 147.894531 124.453125 147.953125 123.691406 147.917969 122.925781 C 147.78125 119.738281 146.089844 118.644531 145.65625 116.035156 C 145.40625 114.140625 145.75 112.355469 146.679688 110.6875 C 145.285156 117.832031 142.679688 124.507812 138.859375 130.703125 Z M 138.859375 130.703125 " fill-opacity="1" fill-rule="nonzero"/></g></g></g></g><g mask="url(#8f39ed2722)"><g transform="matrix(1, 0, 0, 1, 112, 111)"><g clip-path="url(#05402b9981)"><g clip-path="url(#e38a29d06e)"><path fill="#ffffff" d="M 1.609375 78.789062 C 3.714844 80.785156 11.457031 78.324219 13.476562 73.488281 C 15.011719 69.816406 12.101562 67.570312 10.953125 59.601562 C 10.296875 54.941406 10.464844 50.3125 11.460938 45.714844 C 13.289062 37.589844 17.671875 32.203125 20.296875 29.050781 C 22.980469 25.820312 26.5 22.425781 34.941406 16.929688 C 51.40625 6.210938 63.402344 2.613281 62.96875 1.277344 C 62.644531 0.277344 55.535156 0.820312 48.574219 3.800781 C 40.421875 7.289062 40.5 10.695312 32.164062 14.910156 C 22.847656 19.621094 20.078125 16.730469 15.496094 21.222656 C 14.082031 22.613281 12.089844 27.890625 8.15625 38.390625 C 5.140625 46.480469 4.699219 48.046875 4.375 50.261719 C 3.464844 56.375 4.925781 57.234375 4.375 63.640625 C 3.578125 73.230469 -0.21875 77.050781 1.609375 78.789062 Z M 1.609375 78.789062 " fill-opacity="1" fill-rule="nonzero"/></g></g></g></g><g mask="url(#8fd08fd7eb)"><g transform="matrix(1, 0, 0, 1, 151, 173)"><g clip-path="url(#c99590ce28)"><g clip-path="url(#71efe8294f)"><path fill="#ffffff" d="M 2.757812 27.417969 C 3.988281 30.175781 5.671875 32.621094 7.808594 34.757812 C 9.738281 36.796875 11.898438 38.546875 14.300781 40.003906 C 16.699219 41.460938 19.25 42.574219 21.949219 43.34375 C 29.871094 45.507812 36.417969 43.585938 42.148438 41.824219 C 49.894531 39.445312 60.496094 36.183594 66.386719 25.925781 C 73.136719 14.144531 69.332031 0.703125 68.65625 0.675781 C 68.105469 0.675781 69.277344 9.566406 64.113281 18.855469 C 62.679688 21.375 60.957031 23.679688 58.945312 25.769531 C 56.9375 27.859375 54.699219 29.671875 52.238281 31.203125 C 38.1875 39.804688 17.214844 37.496094 8.3125 26.914062 C 3.054688 20.664062 3.050781 12.785156 1.746094 13.027344 C 0.441406 13.273438 -0.15625 20.726562 2.757812 27.417969 Z M 2.757812 27.417969 " fill-opacity="1" fill-rule="nonzero"/></g></g></g></g><g mask="url(#2749c5a236)"><g transform="matrix(1, 0, 0, 1, 163, 113)"><g clip-path="url(#c7934b68b2)"><g clip-path="url(#90f4328db2)"><path fill="#ffffff" d="M 20.667969 1.066406 C 22.90625 1.367188 21.605469 9.355469 26.351562 12.050781 C 29.433594 13.800781 32.035156 11.589844 35.4375 13.941406 C 37.046875 15.050781 37.796875 16.464844 39.226562 19.242188 C 41.582031 23.8125 41.433594 25.691406 42.636719 28.332031 C 45.140625 33.808594 51.855469 38.988281 57.40625 38.175781 C 62.484375 37.4375 63.871094 32.097656 67.632812 32.875 C 70.839844 33.542969 71.203125 37.703125 75.207031 38.554688 C 78.347656 39.226562 80.359375 37.136719 80.886719 37.800781 C 82.058594 39.25 74.398438 51.683594 65.363281 51.4375 C 62.722656 51.363281 59.527344 48.988281 53.242188 44.238281 C 44.753906 37.828125 44.753906 36.265625 38.46875 32.496094 C 35.800781 30.894531 33.984375 30.082031 29.378906 27.195312 C 23.941406 23.777344 24.082031 23.402344 22.554688 22.6875 C 13.539062 18.511719 1.546875 28.269531 0.597656 26.816406 C -0.125 25.707031 7.832031 21.605469 13.851562 12.046875 C 17.605469 6.101562 18.847656 0.816406 20.667969 1.066406 Z M 20.667969 1.066406 " fill-opacity="1" fill-rule="nonzero"/></g></g></g></g><g mask="url(#5a2512e832)"><g transform="matrix(1, 0, 0, 1, 126, 168)"><g clip-path="url(#d05e76ece0)"><g clip-path="url(#d887de3198)"><path fill="#ffffff" d="M 20.566406 44.917969 C 24.550781 50.289062 29.472656 54.578125 35.335938 57.792969 C 37.824219 59.121094 43.898438 62.277344 52 62.71875 C 62.914062 63.304688 70.925781 58.609375 78.136719 54.386719 C 84.882812 50.433594 95.507812 44.191406 101.996094 32.042969 C 110.148438 16.777344 106.960938 1.148438 109.570312 0.980469 C 111.710938 0.847656 113.960938 11.378906 114.492188 13.863281 C 115.78125 19.878906 117.15625 26.316406 115.25 34.3125 C 113.542969 41.476562 109.949219 46.691406 108.054688 49.464844 C 106.585938 51.601562 105.554688 53.101562 103.886719 54.765625 C 95.820312 62.820312 88.523438 59.0625 80.40625 66.128906 C 75.605469 70.292969 75.695312 73.75 71.3125 74.835938 C 67.507812 75.789062 64.632812 73.894531 61.089844 72.566406 C 50.957031 68.773438 45.304688 73.355469 35.332031 72.945312 C 24.445312 72.492188 12.054688 66.242188 5.789062 56.660156 C -5.625 39.195312 5.3125 13.71875 8.820312 13.851562 C 11.550781 13.972656 9.039062 29.585938 20.566406 44.917969 Z M 20.566406 44.917969 " fill-opacity="1" fill-rule="nonzero"/></g></g></g></g><g mask="url(#56ef3e9104)"><g transform="matrix(1, 0, 0, 1, 139, 132)"><g clip-path="url(#6e62d131df)"><path fill="#ffffff" d="M 7.6875 60.847656 C 8.964844 60.613281 4.800781 50.324219 9.203125 38.625 C 14.636719 24.183594 29.632812 16.832031 28.644531 15.386719 C 27.867188 14.25 19.316406 20.019531 17.28125 17.914062 C 14.792969 15.328125 24.847656 3.828125 22.582031 1.5 C 21.066406 -0.0546875 14.382812 2.839844 9.703125 7.5625 C 2.453125 14.871094 1.734375 24.828125 1.371094 31.042969 C 0.429688 47.234375 6.207031 61.113281 7.6875 60.847656 Z M 7.6875 60.847656 " fill-opacity="1" fill-rule="nonzero"/></g></g></g><g mask="url(#a17a2698e3)"><g transform="matrix(1, 0, 0, 1, 100, 101)"><g clip-path="url(#8ae8cf8e48)"><g clip-path="url(#15cdb06da4)"><path fill="#ffffff" d="M 1.871094 75.925781 C 2.609375 76.015625 4.503906 64.425781 10.199219 44.867188 C 13.871094 32.332031 16.765625 24.421875 23.460938 21.761719 C 26.539062 20.539062 27.039062 21.761719 31.03125 20.25 C 36.933594 17.996094 38.179688 14.410156 45.804688 7.75 C 51.664062 2.628906 55.179688 1.054688 54.894531 0.554688 C 54.382812 -0.390625 40.738281 3.488281 28.761719 12.675781 C 10.625 26.589844 5.222656 45.820312 3.753906 51.320312 C 0.289062 64.402344 1.140625 75.851562 1.871094 75.925781 Z M 1.871094 75.925781 " fill-opacity="1" fill-rule="nonzero"/></g></g></g></g><g mask="url(#934dec94fe)"><g transform="matrix(1, 0, 0, 1, 105, 203)"><g clip-path="url(#b94353d698)"><g clip-path="url(#6d1db8e98e)"><path fill="#ffffff" d="M 1.414062 0.832031 C 2.636719 0.425781 4.675781 23.746094 22.242188 39.464844 C 42.863281 57.914062 72.039062 54.402344 71.859375 56.125 C 71.714844 57.519531 52.488281 60.289062 33.984375 50.824219 C 29.683594 48.574219 25.710938 45.847656 22.0625 42.644531 C 18.410156 39.445312 15.191406 35.859375 12.398438 31.890625 C 2.015625 17.191406 0.386719 1.164062 1.414062 0.832031 Z M 1.414062 0.832031 " fill-opacity="1" fill-rule="nonzero"/></g></g></g></g><path fill="#cf7d35" d="M 198.566406 220.941406 C 201.957031 219.671875 204.503906 218.398438 205.339844 217.128906 L 207.035156 215.007812 L 198.566406 217.128906 C 198.566406 216.703125 199.839844 215.855469 201.109375 215.007812 C 204.503906 213.3125 202.808594 213.3125 198.144531 215.429688 C 196.023438 216.277344 195.601562 216.277344 195.601562 215.429688 C 195.601562 215.007812 196.449219 213.734375 197.71875 212.886719 C 198.566406 212.464844 198.992188 212.039062 198.144531 212.039062 C 197.71875 212.039062 196.871094 212.464844 196.449219 212.886719 C 196.023438 213.3125 195.175781 213.3125 194.753906 213.3125 C 193.90625 212.464844 195.175781 210.34375 197.296875 209.496094 C 198.144531 209.074219 198.144531 208.648438 197.71875 208.648438 C 197.296875 208.648438 196.023438 209.074219 195.175781 209.496094 C 193.90625 210.355469 193.90625 210.355469 193.90625 208.660156 C 193.90625 208.234375 194.328125 206.964844 195.175781 206.117188 C 196.023438 205.691406 197.296875 203.148438 198.566406 200.179688 C 208.308594 179.007812 294.296875 74.375 302.351562 72.265625 C 304.046875 71.417969 308.710938 73.113281 307.863281 74.382812 C 307.4375 74.808594 307.863281 74.808594 308.285156 74.382812 C 309.980469 73.535156 311.253906 76.503906 311.253906 79.472656 C 310.828125 80.742188 311.253906 81.589844 311.679688 81.589844 C 312.101562 81.167969 312.101562 80.742188 312.101562 80.320312 C 311.679688 80.320312 312.101562 79.894531 312.527344 79.894531 C 315.917969 79.894531 308.710938 89.632812 281.175781 122.253906 C 250.253906 158.265625 220.175781 195.113281 221.023438 195.539062 L 222.71875 195.539062 C 223.992188 194.691406 245.589844 170.125 269.742188 141.320312 C 302.785156 102.777344 312.527344 90.058594 312.101562 87.949219 C 311.679688 87.101562 312.101562 86.675781 312.527344 86.675781 C 312.949219 86.675781 313.375 86.253906 313.796875 84.980469 C 313.796875 84.132812 314.644531 83.285156 315.070312 82.863281 C 316.339844 82.863281 317.1875 84.558594 316.765625 85.828125 C 316.339844 86.253906 316.765625 86.675781 316.765625 86.675781 C 317.613281 86.675781 317.613281 86.675781 316.765625 87.523438 C 316.339844 87.523438 316.339844 87.949219 316.765625 87.949219 C 317.1875 87.949219 318.035156 87.523438 318.460938 87.101562 C 318.882812 85.828125 319.308594 86.675781 320.15625 89.644531 C 322.699219 96.003906 320.578125 100.230469 308.71875 115.480469 C 300.253906 126.070312 265.511719 166.734375 244.753906 189.191406 L 241.359375 192.582031 L 243.90625 192.582031 C 246.023438 191.734375 260.851562 190.460938 274.40625 189.613281 C 280.339844 189.191406 281.1875 189.191406 281.613281 187.917969 C 285.425781 177.753906 333.285156 79.472656 340.070312 73.96875 C 341.339844 73.121094 343.035156 72.699219 344.730469 72.699219 C 348.121094 72.699219 354.472656 75.667969 353.625 76.9375 C 353.625 77.363281 353.625 78.210938 354.046875 78.210938 C 354.894531 78.210938 354.894531 79.058594 354.046875 80.753906 C 353.625 82.023438 353.625 82.449219 354.046875 82.449219 C 354.472656 82.023438 354.894531 81.175781 354.894531 80.753906 C 354.894531 80.328125 355.320312 79.480469 356.167969 79.058594 C 357.015625 78.632812 357.015625 79.058594 357.015625 80.328125 C 355.320312 84.566406 347.699219 100.667969 331.175781 134.546875 L 308.308594 180.296875 L 303.644531 190.460938 L 306.1875 190.039062 C 308.730469 190.039062 309.15625 189.191406 320.164062 167.167969 C 337.960938 131.15625 357.023438 90.917969 357.4375 88.371094 C 357.4375 87.101562 357.863281 85.828125 357.863281 85.828125 C 357.863281 84.980469 358.710938 82.863281 359.558594 82.863281 C 361.253906 82.4375 361.253906 82.863281 360.828125 86.675781 C 359.980469 93.027344 356.589844 101.503906 340.070312 134.546875 C 331.601562 151.070312 324.820312 165.472656 325.242188 165.894531 C 325.667969 165.894531 325.242188 166.320312 324.820312 165.894531 C 323.972656 165.472656 323.125 167.589844 323.546875 168.863281 C 323.972656 169.285156 323.546875 169.285156 323.546875 169.285156 C 322.273438 168.4375 317.613281 178.601562 318.035156 179.449219 C 318.460938 179.875 318.460938 180.296875 318.035156 179.875 C 317.1875 179.449219 312.527344 188.34375 312.527344 190.460938 C 312.527344 190.460938 312.949219 190.886719 313.796875 190.886719 C 315.070312 190.886719 329.046875 163.351562 350.230469 118.875 C 361.242188 95.15625 362.9375 90.917969 361.667969 90.070312 C 360.820312 89.644531 360.820312 89.644531 361.667969 89.644531 C 362.089844 89.644531 362.089844 88.796875 362.089844 87.523438 C 361.667969 85.828125 361.667969 85.40625 362.515625 87.101562 C 362.9375 88.371094 363.363281 88.371094 363.785156 86.675781 C 363.785156 84.558594 363.785156 84.558594 364.636719 86.253906 L 366.332031 89.644531 C 368.875 92.1875 368.449219 98.535156 365.484375 106.167969 C 362.515625 115.058594 351.503906 138.363281 336.253906 168.015625 C 329.472656 181.144531 323.972656 192.15625 323.972656 192.582031 C 323.972656 192.582031 325.242188 193.429688 326.515625 193.429688 C 329.90625 194.277344 332.449219 196.394531 332.449219 198.941406 C 332.871094 199.789062 332.871094 200.636719 333.296875 200.636719 C 333.71875 200.636719 333.296875 204.875 332.449219 205.722656 C 332.023438 206.144531 332.023438 206.992188 332.449219 207.839844 C 333.71875 209.113281 329.480469 210.808594 325.675781 210.386719 C 320.164062 209.539062 314.664062 209.539062 314.242188 210.386719 C 313.816406 211.234375 312.546875 211.234375 323.558594 212.082031 C 333.296875 212.503906 334.992188 213.351562 332.449219 215.046875 C 330.753906 216.320312 330.753906 216.742188 332.023438 217.167969 L 334.144531 217.167969 C 334.566406 216.742188 334.992188 216.742188 334.992188 217.167969 C 334.992188 217.589844 334.144531 218.015625 332.871094 218.015625 C 332.023438 218.015625 331.601562 218.4375 332.023438 219.285156 C 333.296875 220.984375 332.871094 222.679688 331.175781 224.375 C 329.480469 226.070312 328.632812 226.070312 317.199219 226.492188 L 304.914062 226.917969 L 296.871094 242.589844 C 285.40625 262.886719 275.65625 282.367188 272.699219 291.269531 C 269.730469 299.3125 266.351562 303.550781 265.503906 299.3125 C 265.503906 298.042969 265.503906 295.921875 265.925781 294.226562 C 266.351562 290.410156 265.925781 289.988281 264.65625 292.53125 C 263.808594 293.378906 262.960938 293.800781 262.113281 293.800781 C 261.265625 293.800781 261.265625 293.378906 261.6875 290.410156 C 262.113281 287.445312 261.6875 286.171875 260.839844 284.898438 C 259.570312 283.628906 259.570312 283.628906 259.992188 284.898438 C 259.992188 287.445312 258.722656 287.019531 255.328125 284.050781 C 253.632812 282.355469 251.9375 281.507812 251.9375 281.507812 C 251.9375 281.933594 251.089844 281.085938 250.667969 279.8125 C 248.972656 274.304688 254.90625 251.855469 264.644531 227.714844 C 265.492188 226.441406 264.644531 226.441406 245.578125 226.867188 C 227.363281 227.289062 211.265625 228.5625 201.523438 230.683594 C 197.285156 231.53125 193.90625 231.105469 193.90625 229.832031 C 193.90625 229.410156 194.328125 228.984375 195.175781 228.984375 C 196.023438 228.984375 196.023438 228.5625 195.601562 228.136719 C 193.90625 227.289062 196.023438 226.019531 199.414062 225.59375 C 201.109375 225.171875 202.382812 224.324219 202.382812 223.898438 C 202.382812 223.898438 202.808594 223.476562 203.65625 223.476562 C 204.503906 223.476562 205.773438 223.050781 206.199219 222.203125 C 207.46875 220.933594 207.46875 220.933594 201.109375 222.203125 C 193.90625 223.910156 191.785156 223.0625 198.566406 220.941406 Z M 215.089844 197.222656 C 215.089844 197.222656 223.558594 187.058594 233.730469 174.765625 L 253.644531 150.203125 C 254.492188 149.355469 254.914062 148.507812 254.914062 148.507812 C 254.066406 148.507812 238.816406 166.722656 226.535156 182.398438 L 215.523438 195.953125 C 215.089844 196.800781 214.664062 197.222656 215.089844 197.222656 Z M 216.773438 222.214844 C 218.046875 222.214844 221.4375 221.789062 224.820312 221.367188 C 227.785156 220.941406 236.679688 220.09375 244.730469 219.671875 C 251.929688 219.246094 260.832031 218.398438 263.796875 217.976562 L 269.308594 217.550781 L 262.949219 217.128906 C 253.210938 217.128906 217.621094 220.519531 215.503906 221.789062 C 214.664062 222.214844 215.089844 222.636719 216.773438 222.214844 Z M 233.722656 161.648438 C 243.046875 150.203125 248.546875 142.15625 246.429688 144.699219 C 243.460938 147.667969 226.9375 168.84375 216.773438 182.398438 C 216.351562 182.820312 216.351562 183.246094 216.351562 183.246094 C 216.773438 183.246094 224.40625 173.507812 233.722656 161.648438 Z M 220.589844 219.679688 C 223.132812 219.679688 225.253906 219.257812 225.253906 219.257812 C 226.101562 218.410156 219.742188 219.257812 218.058594 219.679688 C 216.351562 220.105469 217.621094 220.105469 220.589844 219.679688 Z M 222.710938 215.019531 C 223.558594 215.019531 228.644531 214.59375 234.144531 213.746094 C 239.230469 212.898438 249.820312 212.050781 257.863281 211.625 C 270.144531 210.777344 271.839844 210.355469 271.839844 209.082031 C 272.265625 207.8125 271.839844 207.8125 262.527344 208.234375 C 246.003906 209.082031 226.089844 211.203125 223.980469 212.050781 C 221.863281 213.320312 221.015625 215.019531 222.710938 215.019531 Z M 229.492188 218.832031 C 231.613281 218.832031 232.035156 218.410156 231.1875 218.410156 C 230.339844 217.984375 228.644531 217.984375 227.796875 218.410156 C 226.949219 218.410156 227.371094 218.832031 229.492188 218.832031 Z M 229.914062 193.832031 C 231.1875 193.832031 235.425781 189.59375 241.351562 182.398438 C 246.863281 176.464844 258.296875 162.910156 267.1875 152.320312 C 275.65625 142.15625 283.285156 134.105469 283.285156 134.105469 C 283.710938 134.527344 284.980469 133.679688 285.832031 132.40625 L 287.949219 130.289062 L 285.832031 131.984375 C 284.558594 132.832031 284.132812 133.679688 283.710938 133.679688 C 283.285156 133.679688 286.253906 129.441406 293.449219 120.972656 C 304.460938 107.417969 313.363281 95.984375 315.472656 92.589844 C 316.746094 90.894531 316.746094 90.472656 315.898438 90.472656 C 315.472656 90.472656 313.777344 92.167969 312.503906 94.289062 C 309.539062 99.375 303.191406 107.417969 289.210938 123.515625 C 282.851562 130.710938 267.601562 148.507812 255.320312 163.332031 L 230.339844 192.136719 C 228.21875 194.257812 228.21875 194.257812 229.914062 193.832031 Z M 252.785156 145.546875 C 252.785156 146.398438 253.210938 145.972656 254.058594 144.699219 C 255.328125 143.429688 255.328125 143.429688 254.058594 144.277344 Z M 256.601562 141.308594 C 257.023438 141.308594 257.875 140.886719 258.722656 140.039062 C 259.144531 138.765625 259.570312 138.34375 259.570312 138.34375 C 259.144531 138.34375 258.722656 138.765625 257.875 140.039062 Z M 259.570312 137.496094 C 259.992188 137.496094 260.839844 136.648438 262.113281 135.800781 C 262.960938 134.527344 263.382812 133.679688 263.382812 133.679688 C 262.960938 133.679688 262.113281 134.527344 261.265625 135.800781 C 259.992188 136.648438 259.570312 137.496094 259.570312 137.496094 Z M 262.949219 140.886719 C 263.796875 139.613281 263.796875 139.613281 262.527344 140.460938 C 261.679688 140.886719 261.253906 141.734375 261.253906 141.734375 C 261.253906 142.582031 261.679688 142.15625 262.949219 140.886719 Z M 262.101562 129.027344 C 262.101562 129.027344 262.949219 128.179688 264.222656 127.332031 C 265.492188 126.058594 265.917969 125.210938 265.492188 125.210938 L 263.375 127.332031 C 262.527344 128.179688 261.679688 129.027344 262.101562 129.027344 Z M 264.222656 131.984375 C 264.644531 131.984375 265.492188 131.558594 266.339844 130.710938 C 267.1875 129.863281 267.613281 129.015625 267.1875 129.015625 Z M 267.1875 136.222656 C 267.613281 134.953125 268.035156 134.527344 268.035156 134.527344 C 267.613281 134.527344 267.1875 134.953125 266.339844 136.222656 C 265.492188 136.648438 265.070312 137.496094 265.070312 137.496094 C 265.492188 137.496094 266.339844 136.648438 267.1875 136.222656 Z M 266.339844 124.363281 C 266.765625 123.941406 271.851562 118.429688 276.929688 112.082031 C 282.4375 105.296875 286.667969 100.222656 286.242188 100.644531 C 285.394531 101.070312 280.734375 106.582031 275.234375 112.929688 C 269.730469 119.277344 265.917969 124.363281 266.339844 124.363281 Z M 268.460938 270.933594 C 268.882812 269.660156 271.003906 264.148438 273.546875 259.074219 L 283.285156 238.3125 C 286.679688 232.378906 289.222656 227.300781 289.222656 226.875 C 289.222656 226.875 288.375 226.453125 287.527344 226.453125 C 285.40625 226.453125 272.277344 257.800781 269.730469 264.148438 C 267.613281 271.355469 266.765625 274.746094 268.460938 270.933594 Z M 269.730469 126.058594 C 270.578125 124.789062 270.578125 124.789062 269.730469 125.636719 C 268.882812 126.484375 268.035156 126.90625 268.035156 127.332031 C 268.035156 127.753906 268.882812 127.332031 269.730469 126.058594 Z M 268.035156 133.253906 C 268.035156 134.105469 268.882812 133.679688 271.003906 131.136719 L 273.125 128.59375 Z M 271.425781 276.441406 C 272.699219 273.050781 279.046875 260.769531 284.980469 248.910156 C 290.917969 237.050781 295.992188 227.300781 295.992188 226.875 C 295.992188 226.875 295.570312 226.453125 294.722656 226.453125 C 293.449219 226.453125 290.90625 230.691406 282.015625 249.746094 C 274.808594 264.996094 268.882812 279.824219 268.882812 281.941406 C 268.882812 281.941406 270.15625 279.824219 271.425781 276.441406 Z M 272.699219 128.179688 C 273.125 128.179688 273.972656 127.332031 275.242188 126.484375 C 276.089844 125.210938 276.515625 124.363281 276.515625 124.363281 C 276.515625 124.363281 275.242188 125.210938 274.394531 126.484375 C 273.125 127.332031 272.699219 128.179688 272.699219 128.179688 Z M 276.929688 123.515625 C 276.929688 123.515625 278.199219 122.667969 279.472656 120.972656 L 281.589844 118.851562 L 279.046875 120.972656 C 276.929688 123.09375 276.503906 123.515625 276.929688 123.515625 Z M 279.046875 234.929688 C 279.894531 233.660156 280.320312 231.964844 280.320312 231.539062 C 280.320312 231.117188 279.894531 231.964844 279.046875 233.660156 C 278.199219 234.929688 277.351562 236.625 277.351562 237.050781 C 277.351562 237.464844 278.199219 236.617188 279.046875 234.929688 Z M 280.742188 229.84375 C 280.742188 230.691406 281.167969 230.691406 282.015625 228.148438 C 282.863281 226.027344 282.863281 226.027344 281.589844 227.722656 C 281.167969 228.574219 280.742188 229.421875 280.742188 229.84375 Z M 281.167969 118.429688 C 281.589844 118.429688 282.4375 117.15625 283.710938 116.308594 C 284.558594 115.039062 285.40625 114.191406 284.980469 114.191406 C 284.980469 114.191406 283.710938 115.039062 282.863281 116.308594 C 281.589844 117.167969 281.167969 118.429688 281.167969 118.429688 Z M 285.832031 112.929688 C 286.253906 112.929688 287.101562 112.082031 287.949219 111.234375 C 288.796875 110.386719 289.222656 109.539062 288.796875 109.539062 L 287.101562 111.234375 C 286.253906 112.082031 285.832031 112.929688 285.832031 112.929688 Z M 286.679688 99.796875 C 287.101562 99.796875 287.949219 98.527344 289.222656 97.679688 C 290.070312 96.40625 290.492188 95.984375 290.492188 95.984375 C 290.070312 95.984375 289.222656 96.40625 288.375 97.679688 C 287.101562 98.527344 286.679688 99.796875 286.679688 99.796875 Z M 287.949219 129.449219 L 298.113281 118.015625 C 307.429688 107.003906 315.058594 96.40625 314.210938 96.40625 L 310.820312 100.644531 C 309.546875 102.765625 303.613281 110.386719 297.6875 117.167969 Z M 289.222656 189.179688 C 289.644531 189.179688 294.730469 179.015625 300.234375 167.148438 C 306.167969 154.863281 310.394531 145.125 310.394531 144.699219 C 307.851562 149.363281 288.363281 187.910156 288.363281 188.757812 C 287.949219 189.179688 288.375 189.605469 289.222656 189.179688 Z M 291.753906 217.984375 C 292.601562 217.984375 293.027344 217.984375 292.601562 217.5625 C 292.179688 217.136719 291.753906 217.136719 291.332031 217.5625 C 290.484375 217.5625 290.90625 217.984375 291.753906 217.984375 Z M 294.296875 209.507812 C 294.296875 209.929688 295.144531 210.355469 296.417969 210.355469 C 297.265625 210.355469 298.535156 209.929688 298.535156 209.507812 C 298.535156 209.082031 297.6875 208.660156 297.265625 208.660156 L 295.570312 208.660156 C 295.144531 208.660156 294.722656 209.082031 294.296875 209.507812 Z M 299.386719 217.984375 C 300.234375 217.984375 300.65625 217.984375 300.65625 217.5625 C 300.234375 217.136719 299.386719 217.136719 298.960938 217.5625 C 298.535156 217.5625 298.535156 217.984375 299.386719 217.984375 Z M 298.960938 190.027344 C 298.960938 191.722656 301.082031 187.910156 307.429688 174.777344 L 315.472656 158.253906 C 315.898438 157.40625 315.898438 156.984375 315.898438 156.984375 C 315.484375 156.984375 298.960938 189.179688 298.960938 190.027344 Z M 303.199219 210.355469 C 304.046875 211.203125 305.742188 209.929688 305.320312 209.082031 C 304.894531 208.660156 304.046875 208.660156 303.199219 209.082031 C 301.929688 209.507812 301.929688 209.929688 303.199219 210.355469 Z M 309.972656 217.984375 C 309.972656 218.410156 313.363281 218.832031 318.015625 218.832031 C 322.253906 218.832031 325.636719 218.410156 325.210938 218.410156 C 323.101562 217.5625 309.972656 217.5625 309.972656 217.984375 Z M 315.484375 149.777344 C 315.484375 150.203125 316.753906 147.234375 318.875 143.84375 C 320.570312 140.027344 322.265625 136.648438 322.265625 136.648438 C 322.265625 136.222656 320.570312 138.765625 318.875 142.15625 C 316.753906 145.546875 315.484375 149.355469 315.484375 149.777344 Z M 328.613281 113.777344 C 334.972656 101.070312 340.046875 91.320312 339.625 91.320312 C 339.199219 91.320312 316.753906 135.800781 316.753906 136.648438 C 316.753906 137.496094 317.601562 136.222656 328.613281 113.777344 Z M 335.386719 120.972656 C 338.777344 113.777344 341.320312 108.265625 341.320312 108.265625 C 340.898438 108.265625 328.613281 132.40625 328.613281 133.253906 C 328.613281 134.527344 329.039062 133.253906 335.386719 120.972656 Z M 342.59375 86.667969 C 343.015625 86.242188 343.441406 85.394531 343.015625 85.394531 C 343.015625 84.972656 342.167969 85.394531 342.167969 86.242188 C 341.746094 87.515625 341.746094 87.515625 342.59375 86.667969 Z M 348.09375 126.484375 C 348.09375 127.332031 358.679688 105.296875 358.679688 104.875 C 358.679688 104.449219 356.136719 109.113281 353.167969 115.039062 C 350.210938 120.972656 348.09375 126.484375 348.09375 126.484375 Z M 348.515625 93.015625 C 348.515625 93.441406 349.363281 92.167969 350.636719 90.472656 C 351.484375 88.351562 352.332031 86.65625 352.332031 86.234375 C 352.332031 85.808594 351.484375 87.082031 350.636719 88.777344 C 349.363281 90.894531 348.515625 92.589844 348.515625 93.015625 Z M 359.539062 102.753906 C 359.960938 101.90625 360.386719 101.058594 360.386719 100.636719 C 360.386719 100.636719 359.960938 100.636719 359.539062 101.058594 C 359.113281 101.90625 358.691406 102.753906 358.691406 103.179688 C 358.691406 103.601562 359.113281 103.179688 359.539062 102.753906 Z M 359.539062 102.753906 " fill-opacity="1" fill-rule="nonzero"/></svg>